<?xml version="1.0" standalone="no"?> 
<!DOCTYPE svg PUBLIC "-//W3C//DTD SVG 1.1//EN" "http://www.w3.org/Graphics/SVG/1.1/DTD/svg11.dtd" >
<svg xmlns="http://www.w3.org/2000/svg">
<defs>
  <font id="fonticon" horiz-adv-x="1792">
    <font-face font-family="fonticon"
      units-per-em="1792" ascent="1792"
      descent="0" />
    <missing-glyph horiz-adv-x="0" />
    <glyph glyph-name="adjust"
      unicode="&#xE001;"
      horiz-adv-x="1792" d=" M896 352V1440Q748 1440 623 1367T425 1169T352 896T425 623T623 425T896 352zM1664 896Q1664 687 1561 510.5T1281.5 231T896 128T510.5 231T231 510.5T128 896T231 1281.5T510.5 1561T896 1664T1281.5 1561T1561 1281.5T1664 896z" />
    <glyph glyph-name="adn"
      unicode="&#xE002;"
      horiz-adv-x="1792" d=" M896 1170L1097 864H695zM1261 640H1355L896 1331L437 640H531L635 800H1157zM1664 896Q1664 687 1561 510.5T1281.5 231T896 128T510.5 231T231 510.5T128 896T231 1281.5T510.5 1561T896 1664T1281.5 1561T1561 1281.5T1664 896z" />
    <glyph glyph-name="align-center"
      unicode="&#xE003;"
      horiz-adv-x="1792" d=" M1792 448V320Q1792 294 1773 275T1728 256H64Q38 256 19 275T0 320V448Q0 474 19 493T64 512H1728Q1754 512 1773 493T1792 448zM1408 832V704Q1408 678 1389 659T1344 640H448Q422 640 403 659T384 704V832Q384 858 403 877T448 896H1344Q1370 896 1389 877T1408 832zM1664 1216V1088Q1664 1062 1645 1043T1600 1024H192Q166 1024 147 1043T128 1088V1216Q128 1242 147 1261T192 1280H1600Q1626 1280 1645 1261T1664 1216zM1280 1600V1472Q1280 1446 1261 1427T1216 1408H576Q550 1408 531 1427T512 1472V1600Q512 1626 531 1645T576 1664H1216Q1242 1664 1261 1645T1280 1600z" />
    <glyph glyph-name="align-justify"
      unicode="&#xE004;"
      horiz-adv-x="1792" d=" M1792 448V320Q1792 294 1773 275T1728 256H64Q38 256 19 275T0 320V448Q0 474 19 493T64 512H1728Q1754 512 1773 493T1792 448zM1792 832V704Q1792 678 1773 659T1728 640H64Q38 640 19 659T0 704V832Q0 858 19 877T64 896H1728Q1754 896 1773 877T1792 832zM1792 1216V1088Q1792 1062 1773 1043T1728 1024H64Q38 1024 19 1043T0 1088V1216Q0 1242 19 1261T64 1280H1728Q1754 1280 1773 1261T1792 1216zM1792 1600V1472Q1792 1446 1773 1427T1728 1408H64Q38 1408 19 1427T0 1472V1600Q0 1626 19 1645T64 1664H1728Q1754 1664 1773 1645T1792 1600z" />
    <glyph glyph-name="align-left"
      unicode="&#xE005;"
      horiz-adv-x="1792" d=" M1792 448V320Q1792 294 1773 275T1728 256H64Q38 256 19 275T0 320V448Q0 474 19 493T64 512H1728Q1754 512 1773 493T1792 448zM1408 832V704Q1408 678 1389 659T1344 640H64Q38 640 19 659T0 704V832Q0 858 19 877T64 896H1344Q1370 896 1389 877T1408 832zM1664 1216V1088Q1664 1062 1645 1043T1600 1024H64Q38 1024 19 1043T0 1088V1216Q0 1242 19 1261T64 1280H1600Q1626 1280 1645 1261T1664 1216zM1280 1600V1472Q1280 1446 1261 1427T1216 1408H64Q38 1408 19 1427T0 1472V1600Q0 1626 19 1645T64 1664H1216Q1242 1664 1261 1645T1280 1600z" />
    <glyph glyph-name="align-right"
      unicode="&#xE006;"
      horiz-adv-x="1792" d=" M1792 448V320Q1792 294 1773 275T1728 256H64Q38 256 19 275T0 320V448Q0 474 19 493T64 512H1728Q1754 512 1773 493T1792 448zM1792 832V704Q1792 678 1773 659T1728 640H448Q422 640 403 659T384 704V832Q384 858 403 877T448 896H1728Q1754 896 1773 877T1792 832zM1792 1216V1088Q1792 1062 1773 1043T1728 1024H192Q166 1024 147 1043T128 1088V1216Q128 1242 147 1261T192 1280H1728Q1754 1280 1773 1261T1792 1216zM1792 1600V1472Q1792 1446 1773 1427T1728 1408H576Q550 1408 531 1427T512 1472V1600Q512 1626 531 1645T576 1664H1728Q1754 1664 1773 1645T1792 1600z" />
    <glyph glyph-name="ambulance"
      unicode="&#xE007;"
      horiz-adv-x="1792" d=" M576 384Q576 437 538.5 474.5T448 512T357.5 474.5T320 384T357.5 293.5T448 256T538.5 293.5T576 384zM192 896H576V1152H418Q404 1150 396 1143L201 948Q194 936 192 926V896zM1472 384Q1472 437 1434.5 474.5T1344 512T1253.5 474.5T1216 384T1253.5 293.5T1344 256T1434.5 293.5T1472 384zM1600 1056V1248Q1600 1262 1591 1271T1568 1280H1344V1504Q1344 1518 1335 1527T1312 1536H1120Q1106 1536 1097 1527T1088 1504V1280H864Q850 1280 841 1271T832 1248V1056Q832 1042 841 1033T864 1024H1088V800Q1088 786 1097 777T1120 768H1312Q1326 768 1335 777T1344 800V1024H1568Q1582 1024 1591 1033T1600 1056zM1856 1600V448Q1856 422 1837 403T1792 384H1600Q1600 278 1525 203T1344 128T1163 203T1088 384H704Q704 278 629 203T448 128T267 203T192 384H64Q38 384 19 403T0 448T19 493T64 512V928Q64 954 77 986T109 1037L307 1235Q326 1254 358 1267T416 1280H576V1600Q576 1626 595 1645T640 1664H1792Q1818 1664 1837 1645T1856 1600z" />
    <glyph glyph-name="anchor"
      unicode="&#xE008;"
      horiz-adv-x="1792" d=" M960 1536Q960 1562 941 1581T896 1600T851 1581T832 1536T851 1491T896 1472T941 1491T960 1536zM1792 608V256Q1792 234 1772 226Q1764 224 1760 224Q1747 224 1737 233L1644 326Q1525 183 1325.5 99.5T896 16T466.5 99.5T148 326L55 233Q46 224 32 224Q28 224 20 226Q0 234 0 256V608Q0 622 9 631T32 640H384Q406 640 414 620Q422 601 407 585L307 485Q374 394 496.5 331.5T768 249V896H576Q550 896 531 915T512 960V1088Q512 1114 531 1133T576 1152H768V1315Q710 1349 675 1407.5T640 1536Q640 1642 715 1717T896 1792T1077 1717T1152 1536Q1152 1466 1117 1407.5T1024 1315V1152H1216Q1242 1152 1261 1133T1280 1088V960Q1280 934 1261 915T1216 896H1024V249Q1173 269 1295.5 331.5T1485 485L1385 585Q1370 601 1378 620Q1386 640 1408 640H1760Q1774 640 1783 631T1792 608z" />
    <glyph glyph-name="android"
      unicode="&#xE009;"
      horiz-adv-x="1792" d=" M685 1309Q701 1309 712.5 1320.5T724 1348T712.5 1375.5T685 1387T658 1375.5T647 1348T658 1320.5T685 1309zM1107 1309Q1123 1309 1134 1320.5T1145 1348T1134 1375.5T1107 1387T1079.5 1375.5T1068 1348T1079.5 1320.5T1107 1309zM295 1125Q337 1125 367 1095T397 1023V593Q397 550 367.5 520T295 490T222 520T192 593V1023Q192 1065 222 1095T295 1125zM1355 1106V440Q1355 394 1323 362T1246 330H1171V103Q1171 60 1141 30T1068 0T995 30T965 103V330H827V103Q827 60 797 30T724 0Q682 0 652 30T622 103L621 330H547Q501 330 469 362T437 440V1106H1355zM1123 1511Q1230 1456 1294 1357.5T1358 1142H433Q433 1259 497 1357.5T669 1511L598 1642Q591 1655 603 1662Q616 1668 623 1656L695 1524Q790 1566 896 1566T1097 1524L1169 1656Q1176 1668 1189 1662Q1201 1655 1194 1642zM1600 1023V593Q1600 550 1570 520T1497 490Q1455 490 1425 520T1395 593V1023Q1395 1066 1425 1095.5T1497 1125Q1540 1125 1570 1095.5T1600 1023z" />
    <glyph glyph-name="angellist"
      unicode="&#xE00A;"
      horiz-adv-x="1792" d=" M1209 1414L1095 1086L1212 1065Q1377 1516 1377 1583Q1377 1639 1339 1639Q1282 1639 1209 1414zM910 727L943 639Q980 681 1014 706L981 711.5L942.5 718.5L910 727zM618 1623Q618 1525 777 1102Q795 1112 826 1112Q841 1112 901 1107L780 1458Q705 1678 657 1678Q638 1678 628 1660.5T618 1623zM539 864Q539 828 590.5 745T708 592T808 522Q822 522 833.5 535T845 562Q845 586 813 664Q800 696 781 736T733.5 825T672 906T610 938Q590 938 564.5 911T539 864zM381 529Q381 488 406 425Q465 280 589.5 198T871 116Q1098 116 1253 286Q1405 455 1405 713Q1405 756 1404 780T1392.5 842T1362 898Q1306 947 1150.5 973.5T880 1000Q843 1000 831 989Q819 984 819 954Q819 920 840.5 894T896 854T973.5 830.5T1061 819T1146 815T1216 815H1239Q1263 815 1279 796Q1294 777 1298 741Q1270 713 1202 687Q1141 665 1109 641Q1045 595 1000.5 527T956 390Q956 359 974.5 301.5T993 214L990 202Q986 190 986 188Q849 198 840 404Q832 402 799 402Q801 395 801 381Q801 328 760.5 291.5T666 255Q584 255 499.5 333T415 492Q415 526 448 559Q500 495 508 483Q585 379 641 379Q653 379 667.5 387.5T682 408Q682 442 594.5 553T478 664Q435 664 408 619.5T381 529zM267 520Q267 621 309.5 683T446 771Q418 845 418 875Q418 937 479 998T601 1059Q630 1059 671 1044Q508 1506 508 1611Q508 1691 549 1741.5T668 1792Q799 1792 993 1211Q999 1194 1001 1188Q1007 1204 1030 1267.5T1073.5 1386T1127.5 1513.5T1192 1636.5T1262.5 1723T1339 1759Q1410 1759 1451 1710T1492 1588Q1492 1480 1333 1038Q1394 1023 1433.5 992T1492 914T1518 820.5T1525 710Q1525 560 1478 430T1346 205T1135 55T857 0Q746 0 634 42Q485 99 376 233.5T267 520z" />
    <glyph glyph-name="angle-double-down"
      unicode="&#xE00B;"
      horiz-adv-x="1792" d=" M1395 928Q1395 915 1385 905L919 439Q909 429 896 429T873 439L407 905Q397 915 397 928T407 951L457 1001Q467 1011 480 1011T503 1001L896 608L1289 1001Q1299 1011 1312 1011T1335 1001L1385 951Q1395 941 1395 928zM1395 1312Q1395 1299 1385 1289L919 823Q909 813 896 813T873 823L407 1289Q397 1299 397 1312T407 1335L457 1385Q467 1395 480 1395T503 1385L896 992L1289 1385Q1299 1395 1312 1395T1335 1385L1385 1335Q1395 1325 1395 1312z" />
    <glyph glyph-name="angle-double-left"
      unicode="&#xE00C;"
      horiz-adv-x="1792" d=" M1011 416Q1011 403 1001 393L951 343Q941 333 928 333T905 343L439 809Q429 819 429 832T439 855L905 1321Q915 1331 928 1331T951 1321L1001 1271Q1011 1261 1011 1248T1001 1225L608 832L1001 439Q1011 429 1011 416zM1395 416Q1395 403 1385 393L1335 343Q1325 333 1312 333T1289 343L823 809Q813 819 813 832T823 855L1289 1321Q1299 1331 1312 1331T1335 1321L1385 1271Q1395 1261 1395 1248T1385 1225L992 832L1385 439Q1395 429 1395 416z" />
    <glyph glyph-name="angle-double-right"
      unicode="&#xE00D;"
      horiz-adv-x="1792" d=" M979 832Q979 819 969 809L503 343Q493 333 480 333T457 343L407 393Q397 403 397 416T407 439L800 832L407 1225Q397 1235 397 1248T407 1271L457 1321Q467 1331 480 1331T503 1321L969 855Q979 845 979 832zM1363 832Q1363 819 1353 809L887 343Q877 333 864 333T841 343L791 393Q781 403 781 416T791 439L1184 832L791 1225Q781 1235 781 1248T791 1271L841 1321Q851 1331 864 1331T887 1321L1353 855Q1363 845 1363 832z" />
    <glyph glyph-name="angle-double-up"
      unicode="&#xE00E;"
      horiz-adv-x="1792" d=" M1395 480Q1395 467 1385 457L1335 407Q1325 397 1312 397T1289 407L896 800L503 407Q493 397 480 397T457 407L407 457Q397 467 397 480T407 503L873 969Q883 979 896 979T919 969L1385 503Q1395 493 1395 480zM1395 864Q1395 851 1385 841L1335 791Q1325 781 1312 781T1289 791L896 1184L503 791Q493 781 480 781T457 791L407 841Q397 851 397 864T407 887L873 1353Q883 1363 896 1363T919 1353L1385 887Q1395 877 1395 864z" />
    <glyph glyph-name="angle-down"
      unicode="&#xE00F;"
      horiz-adv-x="1792" d=" M1395 1056Q1395 1043 1385 1033L919 567Q909 557 896 557T873 567L407 1033Q397 1043 397 1056T407 1079L457 1129Q467 1139 480 1139T503 1129L896 736L1289 1129Q1299 1139 1312 1139T1335 1129L1385 1079Q1395 1069 1395 1056z" />
    <glyph glyph-name="angle-left"
      unicode="&#xE010;"
      horiz-adv-x="1792" d=" M1203 1248Q1203 1235 1193 1225L800 832L1193 439Q1203 429 1203 416T1193 393L1143 343Q1133 333 1120 333T1097 343L631 809Q621 819 621 832T631 855L1097 1321Q1107 1331 1120 1331T1143 1321L1193 1271Q1203 1261 1203 1248z" />
    <glyph glyph-name="angle-right"
      unicode="&#xE011;"
      horiz-adv-x="1792" d=" M1171 832Q1171 819 1161 809L695 343Q685 333 672 333T649 343L599 393Q589 403 589 416T599 439L992 832L599 1225Q589 1235 589 1248T599 1271L649 1321Q659 1331 672 1331T695 1321L1161 855Q1171 845 1171 832z" />
    <glyph glyph-name="angle-up"
      unicode="&#xE012;"
      horiz-adv-x="1792" d=" M1395 608Q1395 595 1385 585L1335 535Q1325 525 1312 525T1289 535L896 928L503 535Q493 525 480 525T457 535L407 585Q397 595 397 608T407 631L873 1097Q883 1107 896 1107T919 1097L1385 631Q1395 621 1395 608z" />
    <glyph glyph-name="apple"
      unicode="&#xE013;"
      horiz-adv-x="1792" d=" M1585 577Q1546 452 1462 327Q1333 131 1205 131Q1156 131 1065 163Q979 195 914 195Q853 195 772 162Q691 128 640 128Q488 128 339 387Q192 648 192 890Q192 1118 305 1264Q417 1408 589 1408Q661 1408 766 1378Q870 1348 904 1348Q949 1348 1047 1382Q1149 1416 1220 1416Q1339 1416 1433 1351Q1485 1315 1537 1251Q1458 1184 1423 1133Q1358 1039 1358 926Q1358 802 1427 703T1585 577zM1209 1750Q1209 1689 1180 1614Q1150 1539 1087 1476Q1033 1422 979 1404Q942 1393 875 1387Q878 1536 953 1644Q1027 1751 1203 1792Q1204 1789 1205.5 1781T1208 1770Q1208 1766 1208.5 1760T1209 1750z" />
    <glyph glyph-name="archive"
      unicode="&#xE014;"
      horiz-adv-x="1792" d=" M1088 960Q1088 986 1069 1005T1024 1024H768Q742 1024 723 1005T704 960T723 915T768 896H1024Q1050 896 1069 915T1088 960zM1664 1152V192Q1664 166 1645 147T1600 128H192Q166 128 147 147T128 192V1152Q128 1178 147 1197T192 1216H1600Q1626 1216 1645 1197T1664 1152zM1728 1600V1344Q1728 1318 1709 1299T1664 1280H128Q102 1280 83 1299T64 1344V1600Q64 1626 83 1645T128 1664H1664Q1690 1664 1709 1645T1728 1600z" />
    <glyph glyph-name="area-chart"
      unicode="&#xE015;"
      horiz-adv-x="1792" d=" M1920 256V128H-128V1664H0V256H1920zM1536 1280L1792 384H128V960L576 1536L1152 960z" />
    <glyph glyph-name="arrow-circle-down"
      unicode="&#xE016;"
      horiz-adv-x="1792" d=" M1412 895Q1412 922 1394 940L1303 1031Q1285 1049 1258 1049T1213 1031L1024 842V1344Q1024 1370 1005 1389T960 1408H832Q806 1408 787 1389T768 1344V842L579 1031Q560 1050 534 1050T489 1031L398 940Q380 922 380 895T398 850L760 488L851 397Q869 379 896 379T941 397L1032 488L1394 850Q1412 868 1412 895zM1664 896Q1664 687 1561 510.5T1281.5 231T896 128T510.5 231T231 510.5T128 896T231 1281.5T510.5 1561T896 1664T1281.5 1561T1561 1281.5T1664 896z" />
    <glyph glyph-name="arrow-circle-left"
      unicode="&#xE017;"
      horiz-adv-x="1792" d=" M1408 832V960Q1408 986 1389 1005T1344 1024H842L1031 1213Q1050 1232 1050 1258T1031 1303L940 1394Q922 1412 895 1412T850 1394L488 1032L397 941Q379 923 379 896T397 851L488 760L850 398Q868 380 895 380T940 398L1031 489Q1049 507 1049 534T1031 579L842 768H1344Q1370 768 1389 787T1408 832zM1664 896Q1664 687 1561 510.5T1281.5 231T896 128T510.5 231T231 510.5T128 896T231 1281.5T510.5 1561T896 1664T1281.5 1561T1561 1281.5T1664 896z" />
    <glyph glyph-name="arrow-circle-o-down"
      unicode="&#xE018;"
      horiz-adv-x="1792" d=" M1248 864Q1248 852 1238 840L919 521Q908 512 896 512T873 521L553 841Q538 857 546 876Q554 896 576 896H768V1248Q768 1262 777 1271T800 1280H992Q1006 1280 1015 1271T1024 1248V896H1216Q1230 896 1239 887T1248 864zM896 1440Q748 1440 623 1367T425 1169T352 896T425 623T623 425T896 352T1169 425T1367 623T1440 896T1367 1169T1169 1367T896 1440zM1664 896Q1664 687 1561 510.5T1281.5 231T896 128T510.5 231T231 510.5T128 896T231 1281.5T510.5 1561T896 1664T1281.5 1561T1561 1281.5T1664 896z" />
    <glyph glyph-name="arrow-circle-o-left"
      unicode="&#xE019;"
      horiz-adv-x="1792" d=" M1280 992V800Q1280 787 1270.5 777.5T1248 768H896V576Q896 562 887 553T864 544Q852 544 840 554L521 873Q512 882 512 896T521 919L841 1239Q850 1248 864 1248Q877 1248 886.5 1238.5T896 1216V1024H1248Q1261 1024 1270.5 1014.5T1280 992zM1440 896Q1440 1044 1367 1169T1169 1367T896 1440T623 1367T425 1169T352 896T425 623T623 425T896 352T1169 425T1367 623T1440 896zM1664 896Q1664 687 1561 510.5T1281.5 231T896 128T510.5 231T231 510.5T128 896T231 1281.5T510.5 1561T896 1664T1281.5 1561T1561 1281.5T1664 896z" />
    <glyph glyph-name="arrow-circle-o-right"
      unicode="&#xE01A;"
      horiz-adv-x="1792" d=" M1280 896Q1280 882 1271 873L951 553Q942 544 928 544Q915 544 905.5 553.5T896 576V768H544Q531 768 521.5 777.5T512 800V992Q512 1005 521.5 1014.5T544 1024H896V1216Q896 1230 905 1239T928 1248Q940 1248 952 1238L1271 919Q1280 910 1280 896zM1440 896Q1440 1044 1367 1169T1169 1367T896 1440T623 1367T425 1169T352 896T425 623T623 425T896 352T1169 425T1367 623T1440 896zM1664 896Q1664 687 1561 510.5T1281.5 231T896 128T510.5 231T231 510.5T128 896T231 1281.5T510.5 1561T896 1664T1281.5 1561T1561 1281.5T1664 896z" />
    <glyph glyph-name="arrow-circle-o-up"
      unicode="&#xE01B;"
      horiz-adv-x="1792" d=" M1246 916Q1238 896 1216 896H1024V544Q1024 530 1015 521T992 512H800Q786 512 777 521T768 544V896H576Q562 896 553 905T544 928Q544 940 554 952L873 1271Q884 1280 896 1280T919 1271L1239 951Q1254 935 1246 916zM896 1440Q748 1440 623 1367T425 1169T352 896T425 623T623 425T896 352T1169 425T1367 623T1440 896T1367 1169T1169 1367T896 1440zM1664 896Q1664 687 1561 510.5T1281.5 231T896 128T510.5 231T231 510.5T128 896T231 1281.5T510.5 1561T896 1664T1281.5 1561T1561 1281.5T1664 896z" />
    <glyph glyph-name="arrow-circle-right"
      unicode="&#xE01C;"
      horiz-adv-x="1792" d=" M1413 896Q1413 923 1395 941L1304 1032L942 1394Q924 1412 897 1412T852 1394L761 1303Q743 1285 743 1258T761 1213L950 1024H448Q422 1024 403 1005T384 960V832Q384 806 403 787T448 768H950L761 579Q742 560 742 534T761 489L852 398Q870 380 897 380T942 398L1304 760L1395 851Q1413 869 1413 896zM1664 896Q1664 687 1561 510.5T1281.5 231T896 128T510.5 231T231 510.5T128 896T231 1281.5T510.5 1561T896 1664T1281.5 1561T1561 1281.5T1664 896z" />
    <glyph glyph-name="arrow-circle-up"
      unicode="&#xE01D;"
      horiz-adv-x="1792" d=" M1412 897Q1412 924 1394 942L1032 1304L941 1395Q923 1413 896 1413T851 1395L760 1304L398 942Q380 924 380 897T398 852L489 761Q507 743 534 743T579 761L768 950V448Q768 422 787 403T832 384H960Q986 384 1005 403T1024 448V950L1213 761Q1232 742 1258 742T1303 761L1394 852Q1412 870 1412 897zM1664 896Q1664 687 1561 510.5T1281.5 231T896 128T510.5 231T231 510.5T128 896T231 1281.5T510.5 1561T896 1664T1281.5 1561T1561 1281.5T1664 896z" />
    <glyph glyph-name="arrow-down"
      unicode="&#xE01E;"
      horiz-adv-x="1792" d=" M1675 960Q1675 907 1638 870L987 218Q948 181 896 181Q843 181 806 218L155 870Q117 906 117 960Q117 1013 155 1051L229 1126Q268 1163 320 1163Q373 1163 410 1126L704 832V1536Q704 1588 742 1626T832 1664H960Q1012 1664 1050 1626T1088 1536V832L1382 1126Q1419 1163 1472 1163Q1524 1163 1563 1126L1638 1051Q1675 1012 1675 960z" />
    <glyph glyph-name="arrow-left"
      unicode="&#xE01F;"
      horiz-adv-x="1792" d=" M1664 896V768Q1664 715 1631.5 677.5T1547 640H843L1136 346Q1174 310 1174 256T1136 166L1061 90Q1024 53 971 53Q919 53 880 90L229 742Q192 779 192 832Q192 884 229 923L880 1573Q918 1611 971 1611Q1023 1611 1061 1573L1136 1499Q1174 1461 1174 1408T1136 1317L843 1024H1547Q1599 1024 1631.5 986.5T1664 896z" />
    <glyph glyph-name="arrow-right"
      unicode="&#xE020;"
      horiz-adv-x="1792" d=" M1600 832Q1600 778 1563 741L912 90Q873 53 821 53Q770 53 731 90L656 165Q618 203 618 256T656 347L949 640H245Q193 640 160.5 677.5T128 768V896Q128 949 160.5 986.5T245 1024H949L656 1318Q618 1354 618 1408T656 1498L731 1573Q769 1611 821 1611Q874 1611 912 1573L1563 922Q1600 887 1600 832z" />
    <glyph glyph-name="arrow-up"
      unicode="&#xE021;"
      horiz-adv-x="1792" d=" M1675 821Q1675 770 1638 731L1563 656Q1525 618 1472 618Q1418 618 1382 656L1088 949V245Q1088 193 1050.5 160.5T960 128H832Q779 128 741.5 160.5T704 245V949L410 656Q374 618 320 618T230 656L155 731Q117 769 117 821Q117 874 155 912L806 1563Q841 1600 896 1600Q950 1600 987 1563L1638 912Q1675 873 1675 821z" />
    <glyph glyph-name="arrows-alt"
      unicode="&#xE022;"
      horiz-adv-x="1792" d=" M1411 1251L1056 896L1411 541L1555 685Q1584 716 1625 699Q1664 682 1664 640V192Q1664 166 1645 147T1600 128H1152Q1110 128 1093 168Q1076 207 1107 237L1251 381L896 736L541 381L685 237Q716 207 699 168Q682 128 640 128H192Q166 128 147 147T128 192V640Q128 682 168 699Q207 716 237 685L381 541L736 896L381 1251L237 1107Q218 1088 192 1088Q180 1088 168 1093Q128 1110 128 1152V1600Q128 1626 147 1645T192 1664H640Q682 1664 699 1624Q716 1585 685 1555L541 1411L896 1056L1251 1411L1107 1555Q1076 1585 1093 1624Q1110 1664 1152 1664H1600Q1626 1664 1645 1645T1664 1600V1152Q1664 1110 1625 1093Q1612 1088 1600 1088Q1574 1088 1555 1107z" />
    <glyph glyph-name="arrows-h"
      unicode="&#xE023;"
      horiz-adv-x="1792" d=" M1792 896Q1792 870 1773 851L1517 595Q1498 576 1472 576T1427 595T1408 640V768H384V640Q384 614 365 595T320 576T275 595L19 851Q0 870 0 896T19 941L275 1197Q294 1216 320 1216T365 1197T384 1152V1024H1408V1152Q1408 1178 1427 1197T1472 1216T1517 1197L1773 941Q1792 922 1792 896z" />
    <glyph glyph-name="arrows-v"
      unicode="&#xE024;"
      horiz-adv-x="1792" d=" M1216 1472Q1216 1446 1197 1427T1152 1408H1024V384H1152Q1178 384 1197 365T1216 320T1197 275L941 19Q922 0 896 0T851 19L595 275Q576 294 576 320T595 365T640 384H768V1408H640Q614 1408 595 1427T576 1472T595 1517L851 1773Q870 1792 896 1792T941 1773L1197 1517Q1216 1498 1216 1472z" />
    <glyph glyph-name="arrows"
      unicode="&#xE025;"
      horiz-adv-x="1792" d=" M1792 896Q1792 870 1773 851L1517 595Q1498 576 1472 576T1427 595T1408 640V768H1024V384H1152Q1178 384 1197 365T1216 320T1197 275L941 19Q922 0 896 0T851 19L595 275Q576 294 576 320T595 365T640 384H768V768H384V640Q384 614 365 595T320 576T275 595L19 851Q0 870 0 896T19 941L275 1197Q294 1216 320 1216T365 1197T384 1152V1024H768V1408H640Q614 1408 595 1427T576 1472T595 1517L851 1773Q870 1792 896 1792T941 1773L1197 1517Q1216 1498 1216 1472T1197 1427T1152 1408H1024V1024H1408V1152Q1408 1178 1427 1197T1472 1216T1517 1197L1773 941Q1792 922 1792 896z" />
    <glyph glyph-name="asterisk"
      unicode="&#xE026;"
      horiz-adv-x="1792" d=" M1546 742Q1592 716 1605.5 664.5T1593 567L1529 457Q1503 411 1451.5 397.5T1354 410L1088 563V256Q1088 204 1050 166T960 128H832Q780 128 742 166T704 256V563L438 410Q392 384 340.5 397.5T263 457L199 567Q173 613 186.5 664.5T246 742L512 896L246 1050Q200 1076 186.5 1127.5T199 1225L263 1335Q289 1381 340.5 1394.5T438 1382L704 1229V1536Q704 1588 742 1626T832 1664H960Q1012 1664 1050 1626T1088 1536V1229L1354 1382Q1400 1408 1451.5 1394.5T1529 1335L1593 1225Q1619 1179 1605.5 1127.5T1546 1050L1280 896z" />
    <glyph glyph-name="at"
      unicode="&#xE027;"
      horiz-adv-x="1792" d=" M1100 1017Q1100 1125 1046.5 1186T899 1247Q836 1247 775 1216.5T665 1132T585.5 995T555 815Q555 703 608.5 642T759 581Q855 581 935 647.5T1057.5 813.5T1100 1017zM1664 896Q1664 785 1627 699T1528.5 564T1397 489.5T1252 462Q1246 462 1236.5 461.5T1220 461Q1125 461 1078 514Q1050 547 1045 597Q993 531 913.5 487T740 443Q579 443 490.5 538.5T402 808Q402 965 468 1098T647 1308.5T893 1386Q980 1386 1048 1350.5T1154 1251L1156 1270L1167 1326Q1168 1332 1172.5 1338T1182 1344H1300Q1305 1344 1313 1333Q1318 1328 1316 1317L1196 703Q1191 679 1191 655Q1191 616 1203.5 603T1248 590Q1276 591 1305 595.5T1378 619.5T1455 669.5T1512 759T1536 896Q1536 1188 1362 1362T896 1536Q766 1536 647.5 1485T443.5 1348.5T307 1144.5T256 896T307 647.5T443.5 443.5T647.5 307T896 256Q1124 256 1301 400Q1312 409 1325 408T1346 396L1387 347Q1395 335 1394 323Q1392 310 1382 301Q1280 218 1154.5 173T896 128Q740 128 598 189T353 353T189 598T128 896T189 1194T353 1439T598 1603T896 1664Q1240 1664 1452 1452T1664 896z" />
    <glyph glyph-name="backward"
      unicode="&#xE028;"
      horiz-adv-x="1792" d=" M1683 1651Q1702 1670 1715 1664T1728 1632V160Q1728 134 1715 128T1683 141L973 851Q965 860 960 870V160Q960 134 947 128T915 141L205 851Q186 870 186 896T205 941L915 1651Q934 1670 947 1664T960 1632V922Q965 933 973 941z" />
    <glyph glyph-name="ban"
      unicode="&#xE029;"
      horiz-adv-x="1792" d=" M1440 899Q1440 1060 1353 1194L599 441Q736 352 896 352Q1007 352 1107.5 395.5T1281 512T1397 686.5T1440 899zM441 600L1196 1354Q1061 1445 896 1445Q748 1445 623 1372T425 1173T352 899Q352 737 441 600zM1664 899Q1664 742 1603 599T1439.5 353T1194.5 189T896 128T597.5 189T352.5 353T189 599T128 899T189 1198.5T352.5 1444T597.5 1608T896 1669T1194.5 1608T1439.5 1444T1603 1198.5T1664 899z" />
    <glyph glyph-name="bar-chart"
      unicode="&#xE02A;"
      horiz-adv-x="1792" d=" M512 896V384H256V896H512zM896 1408V384H640V1408H896zM1920 256V128H-128V1664H0V256H1920zM1280 1152V384H1024V1152H1280zM1664 1536V384H1408V1536H1664z" />
    <glyph glyph-name="barcode"
      unicode="&#xE02B;"
      horiz-adv-x="1792" d=" M63 256H0V1664H63V256zM126 257H94V1664H126V257zM220 257H189V1664H220V257zM377 257H346V1664H377V257zM534 257H472V1664H534V257zM660 257H629V1664H660V257zM723 257H692V1664H723V257zM786 257H755V1664H786V257zM943 257H880V1664H943V257zM1100 257H1037V1664H1100V257zM1226 257H1163V1664H1226V257zM1352 257H1289V1664H1352V257zM1446 257H1383V1664H1446V257zM1635 257H1541V1664H1635V257zM1698 257H1666V1664H1698V257zM1792 256H1729V1664H1792V256z" />
    <glyph glyph-name="bars"
      unicode="&#xE02C;"
      horiz-adv-x="1792" d=" M1664 448V320Q1664 294 1645 275T1600 256H192Q166 256 147 275T128 320V448Q128 474 147 493T192 512H1600Q1626 512 1645 493T1664 448zM1664 960V832Q1664 806 1645 787T1600 768H192Q166 768 147 787T128 832V960Q128 986 147 1005T192 1024H1600Q1626 1024 1645 1005T1664 960zM1664 1472V1344Q1664 1318 1645 1299T1600 1280H192Q166 1280 147 1299T128 1344V1472Q128 1498 147 1517T192 1536H1600Q1626 1536 1645 1517T1664 1472z" />
    <glyph glyph-name="bed"
      unicode="&#xE02D;"
      horiz-adv-x="1792" d=" M128 768H1856Q1882 768 1901 749T1920 704V256H1664V512H128V256H-128V1472Q-128 1498 -109 1517T-64 1536H64Q90 1536 109 1517T128 1472V768zM704 1088Q704 1194 629 1269T448 1344T267 1269T192 1088T267 907T448 832T629 907T704 1088zM1920 832V896Q1920 1055 1807.5 1167.5T1536 1280H832Q806 1280 787 1261T768 1216V832H1920z" />
    <glyph glyph-name="beer"
      unicode="&#xE02E;"
      horiz-adv-x="1792" d=" M704 896V1280H448V1024Q448 971 485.5 933.5T576 896H704zM1728 448V256H576V448L704 640H576Q417 640 304.5 752.5T192 1024V1344L128 1408L160 1536H640L672 1664H1632L1664 1472L1600 1440V640z" />
    <glyph glyph-name="behance-square"
      unicode="&#xE02F;"
      horiz-adv-x="1792" d=" M1376 1664Q1495 1664 1579.5 1579.5T1664 1376V416Q1664 297 1579.5 212.5T1376 128H416Q297 128 212.5 212.5T128 416V1376Q128 1495 212.5 1579.5T416 1664H1376zM627 1297H256V510H638Q755 510 835 567.5T915 738Q915 896 772 938Q879 990 879 1102Q879 1159 859.5 1198.5T803 1259T724 1288.5T627 1297zM605 979H429V1163H592Q711 1163 711 1073Q711 979 605 979zM614 644H429V861H618Q742 861 742 748Q742 644 614 644zM1264 612Q1196 612 1160 650T1124 757H1535Q1536 767 1536 787Q1536 919 1461.5 1007.5T1258 1096Q1130 1096 1048 1010T966 794Q966 659 1045 577T1258 495Q1463 495 1525 686H1387Q1376 652 1339.5 632T1264 612zM1254 978Q1367 978 1378 856H1124Q1128 912 1163 945T1254 978zM1092 1244H1411V1167H1092V1244z" />
    <glyph glyph-name="behance"
      unicode="&#xE030;"
      horiz-adv-x="1792" d=" M1720 1453H1209V1329H1720V1453zM1468 1027Q1378 1027 1322 974.5T1260 832H1668Q1650 1027 1468 1027zM1484 442Q1547 442 1606 474T1682 561H1903Q1803 254 1476 254Q1262 254 1135.5 386T1009 733Q1009 941 1139.5 1078.5T1476 1216Q1614 1216 1716.5 1148T1869.5 969T1920 721Q1920 704 1918 674H1260Q1260 563 1317.5 502.5T1484 442zM149 492H445Q650 492 650 659Q650 839 451 839H149V492zM149 1029H430Q508 1029 553.5 1065.5T599 1179Q599 1323 409 1323H149V1029zM-128 1538H466Q553 1538 621 1524T747.5 1476.5T837.5 1380T869 1226Q869 1045 697 963Q811 931 869 848T927 644Q927 569 902.5 507.5T836.5 404T738 333T617 291T483 278H-128V1538z" />
    <glyph glyph-name="bell-o"
      unicode="&#xE031;"
      horiz-adv-x="1792" d=" M912 96Q912 112 896 112Q837 112 794.5 154.5T752 256Q752 272 736 272T720 256Q720 183 771.5 131.5T896 80Q912 80 912 96zM246 384H1546Q1280 684 1280 1216Q1280 1267 1256 1321T1187 1424T1065.5 1504.5T896 1536T726.5 1504.5T605 1424T536 1321T512 1216Q512 684 246 384zM1728 384Q1728 332 1690 294T1600 256H1152Q1152 150 1077 75T896 0T715 75T640 256H192Q140 256 102 294T64 384Q114 426 155 472T240 591.5T314.5 750T364.5 956T384 1216Q384 1368 501 1498.5T808 1657Q800 1676 800 1696Q800 1736 828 1764T896 1792T964 1764T992 1696Q992 1676 984 1657Q1174 1629 1291 1498.5T1408 1216Q1408 1077 1427.5 956T1477.5 750T1552 591.5T1637 472T1728 384z" />
    <glyph glyph-name="bell-slash-o"
      unicode="&#xE032;"
      horiz-adv-x="1792" d=" M912 96Q912 112 896 112Q837 112 794.5 154.5T752 256Q752 272 736 272T720 256Q720 183 771.5 131.5T896 80Q912 80 912 96zM375 571L1252 1331Q1210 1419 1119.5 1477.5T896 1536Q803 1536 726.5 1504.5T605 1424T536 1321T512 1216Q512 832 375 571zM1728 384Q1728 332 1690 294T1600 256H1152Q1152 150 1077 75T896 0T715.5 74.5T640 255L789 384H1546Q1380 571 1319 843L1430 940Q1491 584 1728 384zM1814 1776L1898 1680Q1906 1670 1905.5 1656.5T1895 1634L23 12Q13 4 -0.5 5T-22 16L-106 112Q-114 122 -113.5 135.5T-103 157L83 318Q64 350 64 384Q114 426 155 472T240 591.5T314.5 750T364.5 956T384 1216Q384 1368 501 1498.5T808 1657Q800 1676 800 1696Q800 1736 828 1764T896 1792T964 1764T992 1696Q992 1676 984 1657Q1108 1639 1203 1574.5T1351 1417L1769 1780Q1779 1788 1792.5 1787T1814 1776z" />
    <glyph glyph-name="bell-slash"
      unicode="&#xE033;"
      horiz-adv-x="1792" d=" M1430 940Q1491 584 1728 384Q1728 332 1690 294T1600 256H1152Q1152 150 1077 75T896 0T715.5 74.5T640 255zM896 80Q912 80 912 96T896 112Q837 112 794.5 154.5T752 256Q752 272 736 272T720 256Q720 183 771.5 131.5T896 80zM1898 1680Q1906 1670 1905.5 1656.5T1895 1634L23 12Q13 4 -0.5 5T-22 16L-106 112Q-114 122 -113.5 135.5T-103 157L83 318Q64 350 64 384Q114 426 155 472T240 591.5T314.5 750T364.5 956T384 1216Q384 1368 501 1498.5T808 1657Q800 1676 800 1696Q800 1736 828 1764T896 1792T964 1764T992 1696Q992 1676 984 1657Q1108 1639 1203 1574.5T1351 1417L1769 1780Q1779 1788 1792.5 1787T1814 1776z" />
    <glyph glyph-name="bell"
      unicode="&#xE034;"
      horiz-adv-x="1792" d=" M912 96Q912 112 896 112Q837 112 794.5 154.5T752 256Q752 272 736 272T720 256Q720 183 771.5 131.5T896 80Q912 80 912 96zM1728 384Q1728 332 1690 294T1600 256H1152Q1152 150 1077 75T896 0T715 75T640 256H192Q140 256 102 294T64 384Q114 426 155 472T240 591.5T314.5 750T364.5 956T384 1216Q384 1368 501 1498.5T808 1657Q800 1676 800 1696Q800 1736 828 1764T896 1792T964 1764T992 1696Q992 1676 984 1657Q1174 1629 1291 1498.5T1408 1216Q1408 1077 1427.5 956T1477.5 750T1552 591.5T1637 472T1728 384z" />
    <glyph glyph-name="bicycle"
      unicode="&#xE035;"
      horiz-adv-x="1792" d=" M506 640H192Q152 640 134.5 675T141 742L329 993Q264 1024 192 1024Q60 1024 -34 930T-128 704T-34 478T192 384Q307 384 395 456.5T506 640zM320 768H506Q488 853 431 916zM800 768L1088 1152H608L509 1020Q614 917 635 768H800zM1920 704Q1920 836 1826 930T1600 1024Q1540 1024 1479 1000L1653 740Q1668 717 1663 691T1636 651Q1621 640 1600 640Q1565 640 1547 669L1373 929Q1280 834 1280 704Q1280 572 1374 478T1600 384T1826 478T1920 704zM2048 704Q2048 519 1916.5 387.5T1600 256T1283.5 387.5T1152 704Q1152 801 1191.5 887.5T1301 1037L1236 1135L883 666Q865 640 832 640H635Q612 476 486 366T192 256Q7 256 -124.5 387.5T-256 704T-124.5 1020.5T192 1152Q306 1152 407 1097L544 1280H320Q294 1280 275 1299T256 1344T275 1389T320 1408H704V1280H1139L1054 1408H832Q806 1408 787 1427T768 1472T787 1517T832 1536H1088Q1121 1536 1141 1508L1408 1108Q1499 1152 1600 1152Q1785 1152 1916.5 1020.5T2048 704z" />
    <glyph glyph-name="binoculars"
      unicode="&#xE036;"
      horiz-adv-x="1792" d=" M704 1472V704Q704 678 685 659T640 640V64Q640 38 621 19T576 0H64Q38 0 19 19T0 64V576L249 1449Q256 1472 280 1472H704zM1024 1472V768H768V1472H1024zM1792 576V64Q1792 38 1773 19T1728 0H1216Q1190 0 1171 19T1152 64V640Q1126 640 1107 659T1088 704V1472H1512Q1536 1472 1543 1449zM736 1760V1536H384V1760Q384 1774 393 1783T416 1792H704Q718 1792 727 1783T736 1760zM1408 1760V1536H1056V1760Q1056 1774 1065 1783T1088 1792H1376Q1390 1792 1399 1783T1408 1760z" />
    <glyph glyph-name="birthday-cake"
      unicode="&#xE037;"
      horiz-adv-x="1792" d=" M1792 384V0H0V384Q45 384 85 398T144 425.5T191 463Q221 490 242.5 501T299 512T354.5 501T407 463Q436 438 454 425T512 398T598 384Q643 384 683 398.5T741 425.5T789 463Q810 482 821.5 490T852.5 505T896 512Q931 512 952.5 501T1004 463Q1032 439 1051 425.5T1110 398T1195 384T1280 398T1339 425.5T1386 463Q1416 490 1437.5 501T1494 512Q1528 512 1549.5 501T1601 463Q1629 439 1648 425.5T1707 398T1792 384zM1792 704V512Q1757 512 1736.5 523T1684 561Q1655 586 1637 599T1579 626T1494 640Q1448 640 1408 626T1350 599T1303 561Q1281 542 1270 534T1239 519T1195 512Q1160 512 1138.5 523T1087 561Q1058 586 1040 599T982 626T896 640Q851 640 811 625.5T753 598.5T705 561Q684 542 672.5 534T641.5 519T598 512Q563 512 541.5 523T490 561Q462 585 443 598.5T384 626T299 640Q253 640 213 626T155 599T108 561Q78 534 56.5 523T0 512V704Q0 784 56 840T192 896H256V1344H512V896H768V1344H1024V896H1280V1344H1536V896H1600Q1680 896 1736 840T1792 704zM512 1568Q512 1491 476 1449.5T384 1408Q331 1408 293.5 1445.5T256 1536Q256 1565 265.5 1587T289 1621T320 1649T351 1680.5T374.5 1725T384 1792Q422 1792 467 1718T512 1568zM1024 1568Q1024 1491 988 1449.5T896 1408Q843 1408 805.5 1445.5T768 1536Q768 1565 777.5 1587T801 1621T832 1649T863 1680.5T886.5 1725T896 1792Q934 1792 979 1718T1024 1568zM1536 1568Q1536 1491 1500 1449.5T1408 1408Q1355 1408 1317.5 1445.5T1280 1536Q1280 1565 1289.5 1587T1313 1621T1344 1649T1375 1680.5T1398.5 1725T1408 1792Q1446 1792 1491 1718T1536 1568z" />
    <glyph glyph-name="bitbucket-square"
      unicode="&#xE038;"
      horiz-adv-x="1792" d=" M976 922Q976 965 935 988T858 989Q815 969 815.5 916.5T859 846Q898 823 940 850T976 922zM1056 938Q1064 872 1020 817T910 756T791 796T735 909Q733 958 760.5 1002T833 1066Q903 1097 974.5 1056T1056 938zM1228 1329Q1208 1308 1174.5 1295T1121.5 1279T1058 1271Q903 1251 734 1271Q690 1277 671 1280.5T618.5 1296.5T564 1329Q577 1348 600 1360T640 1375.5T687 1384Q885 1419 1095 1385Q1128 1380 1146 1376.5T1189 1360.5T1228 1329zM1270 583Q1270 590 1275.5 609.5T1278.5 641.5T1261 658Q1100 552 896 552T530 658L518 652L513 640Q539 486 554 430Q601 349 758 322Q1007 276 1186 375Q1220 394 1235 426.5T1257.5 512T1270 583zM1400 1276Q1409 1329 1392 1351Q1349 1406 1237 1439Q1021 1502 750 1475Q618 1463 524 1429Q486 1414 464.5 1404T417.5 1370T388 1316Q396 1248 407 1178T436 1007T460 870Q461 865 465 839T472 803T484 776T506 748Q611 668 790 648Q1049 620 1230 711Q1254 724 1269.5 734T1300.5 763T1320 803Q1368 1070 1400 1276zM1664 1376V416Q1664 297 1579.5 212.5T1376 128H416Q297 128 212.5 212.5T128 416V1376Q128 1495 212.5 1579.5T416 1664H1376Q1495 1664 1579.5 1579.5T1664 1376z" />
    <glyph glyph-name="bitbucket"
      unicode="&#xE039;"
      horiz-adv-x="1792" d=" M1007 933Q1015 870 956.5 832T845 826Q806 843 791.5 884T791 966T843 1024Q879 1042 915.5 1036T979.5 1000.5T1007 933zM1118 954Q1104 1061 1005 1118T808 1131Q745 1103 707.5 1042.5T673 913Q677 822 750.5 758T916 702Q1007 710 1068 786T1118 954zM1357 1496Q1337 1523 1301 1540.5T1243 1562.5T1172 1575Q881 1622 606 1573Q563 1566 540 1561T485 1539T435 1496Q465 1468 511 1450.5T584.5 1428.5T672 1417Q900 1388 1120 1416Q1183 1424 1209.5 1428T1282 1449.5T1357 1496zM1414 461Q1406 435 1398.5 384.5T1384.5 300.5T1356 230.5T1298 174Q1212 126 1108.5 102.5T906.5 80.5T705 99Q659 107 623.5 117T547 144T474 187.5T422 249Q397 345 365 541L371 557L389 566Q612 418 895.5 418T1403 566Q1424 560 1427 543T1422 498T1414 461zM1595 1422Q1569 1255 1484 767Q1479 737 1457 711T1413.5 671T1359 640Q1107 514 749 552Q501 579 355 691Q340 703 329.5 717.5T312.5 752.5T303.5 786.5T297.5 826T292 861Q283 911 265.5 1011T237.5 1172.5T214 1320T192 1478Q195 1504 209.5 1526.5T241 1564T286 1594T332 1616.5T380 1635Q505 1681 693 1699Q1072 1736 1369 1649Q1524 1603 1584 1527Q1600 1507 1600.5 1476T1595 1422z" />
    <glyph glyph-name="bold"
      unicode="&#xE03A;"
      horiz-adv-x="1792" d=" M747 271Q821 239 887 239Q1263 239 1263 574Q1263 688 1222 754Q1195 798 1160.5 828T1093 874.5T1012.5 899.5T928.5 910T834 912Q761 912 733 902Q733 849 732.5 743T732 585Q732 577 731 517.5T730.5 421T735 337.5T747 271zM733 1017Q775 1010 842 1010Q924 1010 985 1023T1095 1067.5T1169.5 1157T1195 1299Q1195 1369 1166 1421.5T1087 1503.5T979 1547T855 1561Q805 1561 725 1548Q725 1498 729 1397T733 1245Q733 1218 732.5 1165T732 1086Q732 1040 733 1017zM192 128L194 222Q209 226 279 238T385 265Q392 277 397.5 292T406 325.5T411.5 358T414.5 395.5T415 429.5V495Q415 1477 393 1520Q389 1528 371 1534.5T326.5 1545.5T277 1552.5T228.5 1557T198 1560L194 1643Q292 1645 534 1654.5T907 1664Q930 1664 975.5 1663.5T1043 1663Q1113 1663 1179.5 1650T1308 1608T1416 1537T1490 1432.5T1518 1295Q1518 1243 1501.5 1199.5T1462.5 1127.5T1398 1070T1325 1025T1241 985Q1395 950 1497.5 851T1600 603Q1600 503 1565 423.5T1471.5 293T1333.5 207.5T1170 159T994 145Q950 145 862 148T730 151Q624 151 423 140T192 128z" />
    <glyph glyph-name="bolt"
      unicode="&#xE03B;"
      horiz-adv-x="1792" d=" M1333 1226Q1351 1206 1340 1182L800 25Q787 0 758 0Q754 0 744 2Q727 7 718.5 21T714 51L911 859L505 758Q501 757 493 757Q475 757 462 768Q444 783 449 807L650 1632Q654 1646 666 1655T694 1664H1022Q1041 1664 1054 1651.5T1067 1622Q1067 1614 1062 1604L891 1141L1287 1239Q1295 1241 1299 1241Q1318 1241 1333 1226z" />
    <glyph glyph-name="bomb"
      unicode="&#xE03C;"
      horiz-adv-x="1792" d=" M571 1203Q561 1228 537 1238T488 1238Q380 1194 297 1111T170 920Q160 895 170 871T205 837Q218 832 229 832Q271 832 289 872Q323 956 387.5 1020.5T536 1119Q561 1130 571 1154T571 1203zM1513 1559L1559 1513L1315 1270L1383 1202Q1402 1183 1402 1156.5T1383 1111L1319 1047Q1408 886 1408 704Q1408 561 1352.5 430.5T1202.5 205.5T977.5 55.5T704 0T430.5 55.5T205.5 205.5T55.5 430.5T0 704T55.5 977.5T205.5 1202.5T430.5 1352.5T704 1408Q886 1408 1047 1319L1111 1383Q1130 1402 1156.5 1402T1202 1383L1270 1315zM1521 1615Q1511 1605 1499 1605Q1486 1605 1476 1615L1385 1705Q1376 1715 1376 1728T1385 1751Q1395 1760 1408 1760T1431 1751L1521 1660Q1531 1651 1531 1637.5T1521 1615zM1751 1385Q1740 1376 1728 1376T1705 1385L1615 1476Q1605 1485 1605 1498.5T1615 1521Q1624 1531 1637.5 1531T1660 1521L1751 1431Q1760 1421 1760 1408T1751 1385zM1792 1568Q1792 1554 1783 1545T1760 1536H1664Q1650 1536 1641 1545T1632 1568T1641 1591T1664 1600H1760Q1774 1600 1783 1591T1792 1568zM1600 1760V1664Q1600 1650 1591 1641T1568 1632T1545 1641T1536 1664V1760Q1536 1774 1545 1783T1568 1792T1591 1783T1600 1760zM1751 1705L1660 1615Q1650 1605 1638 1605Q1625 1605 1615 1615Q1605 1624 1605 1637.5T1615 1660L1705 1751Q1715 1760 1728 1760T1751 1751Q1760 1741 1760 1728T1751 1705z" />
    <glyph glyph-name="book"
      unicode="&#xE03D;"
      horiz-adv-x="1792" d=" M1703 1314Q1743 1257 1721 1185L1446 279Q1427 215 1369.5 171.5T1247 128H324Q247 128 175.5 181.5T76 313Q52 380 74 440Q74 444 77 467T81 504Q82 512 78 525.5T75 545Q77 556 83 566T99.5 589.5T116 613Q139 651 161 704.5T191 796Q194 806 191.5 826T191 854Q194 865 208 882T225 905Q246 941 267 997T292 1087Q293 1096 289.5 1119T290 1147Q294 1160 312 1177.5T334 1200Q353 1226 376.5 1284.5T404 1381Q405 1389 401 1406.5T399 1433Q401 1441 408 1451T426 1474T443 1495Q451 1507 459.5 1525.5T474.5 1560.5T490.5 1596.5T510 1628.5T536.5 1652T572.5 1663.5T620 1658L619 1655Q657 1664 670 1664H1431Q1505 1664 1545 1608T1563 1478L1289 572Q1253 453 1217.5 418.5T1089 384H220Q193 384 182 369Q171 353 181 326Q205 256 325 256H1248Q1277 256 1304 271.5T1339 313L1639 1300Q1646 1322 1644 1357Q1682 1342 1703 1314zM639 1312Q635 1299 641 1289.5T661 1280H1269Q1282 1280 1294.5 1289.5T1311 1312L1332 1376Q1336 1389 1330 1398.5T1310 1408H702Q689 1408 676.5 1398.5T660 1376zM556 1056Q552 1043 558 1033.5T578 1024H1186Q1199 1024 1211.5 1033.5T1228 1056L1249 1120Q1253 1133 1247 1142.5T1227 1152H619Q606 1152 593.5 1142.5T577 1120z" />
    <glyph glyph-name="bookmark-o"
      unicode="&#xE03E;"
      horiz-adv-x="1792" d=" M1408 1536H384V294L807 700L896 785L985 700L1408 294V1536zM1420 1664Q1443 1664 1464 1655Q1497 1642 1516.5 1614T1536 1552V263Q1536 229 1516.5 201T1464 160Q1445 152 1420 152Q1372 152 1337 184L896 608L455 184Q419 151 372 151Q349 151 328 160Q295 173 275.5 201T256 263V1552Q256 1586 275.5 1614T328 1655Q349 1664 372 1664H1420z" />
    <glyph glyph-name="bookmark"
      unicode="&#xE03F;"
      horiz-adv-x="1792" d=" M1420 1664Q1443 1664 1464 1655Q1497 1642 1516.5 1614T1536 1552V263Q1536 229 1516.5 201T1464 160Q1445 152 1420 152Q1372 152 1337 184L896 608L455 184Q419 151 372 151Q349 151 328 160Q295 173 275.5 201T256 263V1552Q256 1586 275.5 1614T328 1655Q349 1664 372 1664H1420z" />
    <glyph glyph-name="briefcase"
      unicode="&#xE040;"
      horiz-adv-x="1792" d=" M640 1536H1152V1664H640V1536zM1792 896V416Q1792 350 1745 303T1632 256H160Q94 256 47 303T0 416V896H672V736Q672 710 691 691T736 672H1056Q1082 672 1101 691T1120 736V896H1792zM1024 896V768H768V896H1024zM1792 1376V992H0V1376Q0 1442 47 1489T160 1536H512V1696Q512 1736 540 1764T608 1792H1184Q1224 1792 1252 1764T1280 1696V1536H1632Q1698 1536 1745 1489T1792 1376z" />
    <glyph glyph-name="btc"
      unicode="&#xE041;"
      horiz-adv-x="1792" d=" M1423 1152Q1441 970 1292 894Q1409 866 1467 791T1512 577Q1505 506 1479.5 452T1415 363T1318 304.5T1196.5 270T1051 255V0H897V251Q817 251 775 252V0H621V255Q603 255 567 255.5T512 256H312L343 439H454Q504 439 512 490V892H528Q522 893 512 893V1180Q499 1248 423 1248H312V1412L524 1411Q588 1411 621 1412V1664H775V1417Q857 1419 897 1419V1664H1051V1412Q1130 1405 1191 1389.5T1304 1344.5T1386.5 1266.5T1423 1152zM1208 607Q1208 643 1193 671T1156 717T1098.5 747.5T1033 766T959 775T890 778T825.5 777T778 776V438Q786 438 815 437.5T863 437T916 438.5T974.5 442.5T1031.5 451T1087 465T1134.5 486T1174 516T1198.5 556T1208 607zM1137 1083Q1137 1116 1124.5 1141.5T1094 1183.5T1046 1211.5T991 1228T929.5 1236T871.5 1238.5T817.5 1237.5T778 1237V930Q783 930 812.5 929.5T859 929.5T909 931.5T964 937T1015.5 948T1064 966.5T1101 993.5T1128 1032T1137 1083z" />
    <glyph glyph-name="bug"
      unicode="&#xE042;"
      horiz-adv-x="1792" d=" M1696 832Q1696 806 1677 787T1632 768H1408Q1408 597 1341 478L1549 269Q1568 250 1568 224T1549 179Q1531 160 1504 160T1459 179L1261 376Q1256 371 1246 363T1204 334.5T1139 298T1057 269T960 256V1152H832V256Q781 256 730.5 269.5T643.5 302.5T577.5 341.5T534 374L519 388L336 181Q316 160 288 160Q264 160 245 176Q226 194 224.5 220.5T240 267L442 494Q384 608 384 768H160Q134 768 115 787T96 832T115 877T160 896H384V1190L211 1363Q192 1382 192 1408T211 1453T256 1472T301 1453L474 1280H1318L1491 1453Q1510 1472 1536 1472T1581 1453T1600 1408T1581 1363L1408 1190V896H1632Q1658 896 1677 877T1696 832zM1216 1408H576Q576 1541 669.5 1634.5T896 1728T1122.5 1634.5T1216 1408z" />
    <glyph glyph-name="building-o"
      unicode="&#xE043;"
      horiz-adv-x="1792" d=" M576 480V416Q576 403 566.5 393.5T544 384H480Q467 384 457.5 393.5T448 416V480Q448 493 457.5 502.5T480 512H544Q557 512 566.5 502.5T576 480zM576 736V672Q576 659 566.5 649.5T544 640H480Q467 640 457.5 649.5T448 672V736Q448 749 457.5 758.5T480 768H544Q557 768 566.5 758.5T576 736zM832 736V672Q832 659 822.5 649.5T800 640H736Q723 640 713.5 649.5T704 672V736Q704 749 713.5 758.5T736 768H800Q813 768 822.5 758.5T832 736zM576 992V928Q576 915 566.5 905.5T544 896H480Q467 896 457.5 905.5T448 928V992Q448 1005 457.5 1014.5T480 1024H544Q557 1024 566.5 1014.5T576 992zM1344 480V416Q1344 403 1334.5 393.5T1312 384H1248Q1235 384 1225.5 393.5T1216 416V480Q1216 493 1225.5 502.5T1248 512H1312Q1325 512 1334.5 502.5T1344 480zM1088 736V672Q1088 659 1078.5 649.5T1056 640H992Q979 640 969.5 649.5T960 672V736Q960 749 969.5 758.5T992 768H1056Q1069 768 1078.5 758.5T1088 736zM832 992V928Q832 915 822.5 905.5T800 896H736Q723 896 713.5 905.5T704 928V992Q704 1005 713.5 1014.5T736 1024H800Q813 1024 822.5 1014.5T832 992zM576 1248V1184Q576 1171 566.5 1161.5T544 1152H480Q467 1152 457.5 1161.5T448 1184V1248Q448 1261 457.5 1270.5T480 1280H544Q557 1280 566.5 1270.5T576 1248zM1344 736V672Q1344 659 1334.5 649.5T1312 640H1248Q1235 640 1225.5 649.5T1216 672V736Q1216 749 1225.5 758.5T1248 768H1312Q1325 768 1334.5 758.5T1344 736zM1088 992V928Q1088 915 1078.5 905.5T1056 896H992Q979 896 969.5 905.5T960 928V992Q960 1005 969.5 1014.5T992 1024H1056Q1069 1024 1078.5 1014.5T1088 992zM832 1248V1184Q832 1171 822.5 1161.5T800 1152H736Q723 1152 713.5 1161.5T704 1184V1248Q704 1261 713.5 1270.5T736 1280H800Q813 1280 822.5 1270.5T832 1248zM576 1504V1440Q576 1427 566.5 1417.5T544 1408H480Q467 1408 457.5 1417.5T448 1440V1504Q448 1517 457.5 1526.5T480 1536H544Q557 1536 566.5 1526.5T576 1504zM1344 992V928Q1344 915 1334.5 905.5T1312 896H1248Q1235 896 1225.5 905.5T1216 928V992Q1216 1005 1225.5 1014.5T1248 1024H1312Q1325 1024 1334.5 1014.5T1344 992zM1088 1248V1184Q1088 1171 1078.5 1161.5T1056 1152H992Q979 1152 969.5 1161.5T960 1184V1248Q960 1261 969.5 1270.5T992 1280H1056Q1069 1280 1078.5 1270.5T1088 1248zM832 1504V1440Q832 1427 822.5 1417.5T800 1408H736Q723 1408 713.5 1417.5T704 1440V1504Q704 1517 713.5 1526.5T736 1536H800Q813 1536 822.5 1526.5T832 1504zM1344 1248V1184Q1344 1171 1334.5 1161.5T1312 1152H1248Q1235 1152 1225.5 1161.5T1216 1184V1248Q1216 1261 1225.5 1270.5T1248 1280H1312Q1325 1280 1334.5 1270.5T1344 1248zM1088 1504V1440Q1088 1427 1078.5 1417.5T1056 1408H992Q979 1408 969.5 1417.5T960 1440V1504Q960 1517 969.5 1526.5T992 1536H1056Q1069 1536 1078.5 1526.5T1088 1504zM1344 1504V1440Q1344 1427 1334.5 1417.5T1312 1408H1248Q1235 1408 1225.5 1417.5T1216 1440V1504Q1216 1517 1225.5 1526.5T1248 1536H1312Q1325 1536 1334.5 1526.5T1344 1504zM1088 128H1472V1664H320V128H704V352Q704 365 713.5 374.5T736 384H1056Q1069 384 1078.5 374.5T1088 352V128zM1600 1728V64Q1600 38 1581 19T1536 0H256Q230 0 211 19T192 64V1728Q192 1754 211 1773T256 1792H1536Q1562 1792 1581 1773T1600 1728z" />
    <glyph glyph-name="building"
      unicode="&#xE044;"
      horiz-adv-x="1792" d=" M1472 1792Q1498 1792 1517 1773T1536 1728V64Q1536 38 1517 19T1472 0H192Q166 0 147 19T128 64V1728Q128 1754 147 1773T192 1792H1472zM640 1504V1440Q640 1426 649 1417T672 1408H736Q750 1408 759 1417T768 1440V1504Q768 1518 759 1527T736 1536H672Q658 1536 649 1527T640 1504zM640 1248V1184Q640 1170 649 1161T672 1152H736Q750 1152 759 1161T768 1184V1248Q768 1262 759 1271T736 1280H672Q658 1280 649 1271T640 1248zM640 992V928Q640 914 649 905T672 896H736Q750 896 759 905T768 928V992Q768 1006 759 1015T736 1024H672Q658 1024 649 1015T640 992zM640 736V672Q640 658 649 649T672 640H736Q750 640 759 649T768 672V736Q768 750 759 759T736 768H672Q658 768 649 759T640 736zM512 416V480Q512 494 503 503T480 512H416Q402 512 393 503T384 480V416Q384 402 393 393T416 384H480Q494 384 503 393T512 416zM512 672V736Q512 750 503 759T480 768H416Q402 768 393 759T384 736V672Q384 658 393 649T416 640H480Q494 640 503 649T512 672zM512 928V992Q512 1006 503 1015T480 1024H416Q402 1024 393 1015T384 992V928Q384 914 393 905T416 896H480Q494 896 503 905T512 928zM512 1184V1248Q512 1262 503 1271T480 1280H416Q402 1280 393 1271T384 1248V1184Q384 1170 393 1161T416 1152H480Q494 1152 503 1161T512 1184zM512 1440V1504Q512 1518 503 1527T480 1536H416Q402 1536 393 1527T384 1504V1440Q384 1426 393 1417T416 1408H480Q494 1408 503 1417T512 1440zM1024 160V352Q1024 366 1015 375T992 384H672Q658 384 649 375T640 352V160Q640 146 649 137T672 128H992Q1006 128 1015 137T1024 160zM1024 672V736Q1024 750 1015 759T992 768H928Q914 768 905 759T896 736V672Q896 658 905 649T928 640H992Q1006 640 1015 649T1024 672zM1024 928V992Q1024 1006 1015 1015T992 1024H928Q914 1024 905 1015T896 992V928Q896 914 905 905T928 896H992Q1006 896 1015 905T1024 928zM1024 1184V1248Q1024 1262 1015 1271T992 1280H928Q914 1280 905 1271T896 1248V1184Q896 1170 905 1161T928 1152H992Q1006 1152 1015 1161T1024 1184zM1024 1440V1504Q1024 1518 1015 1527T992 1536H928Q914 1536 905 1527T896 1504V1440Q896 1426 905 1417T928 1408H992Q1006 1408 1015 1417T1024 1440zM1280 416V480Q1280 494 1271 503T1248 512H1184Q1170 512 1161 503T1152 480V416Q1152 402 1161 393T1184 384H1248Q1262 384 1271 393T1280 416zM1280 672V736Q1280 750 1271 759T1248 768H1184Q1170 768 1161 759T1152 736V672Q1152 658 1161 649T1184 640H1248Q1262 640 1271 649T1280 672zM1280 928V992Q1280 1006 1271 1015T1248 1024H1184Q1170 1024 1161 1015T1152 992V928Q1152 914 1161 905T1184 896H1248Q1262 896 1271 905T1280 928zM1280 1184V1248Q1280 1262 1271 1271T1248 1280H1184Q1170 1280 1161 1271T1152 1248V1184Q1152 1170 1161 1161T1184 1152H1248Q1262 1152 1271 1161T1280 1184zM1280 1440V1504Q1280 1518 1271 1527T1248 1536H1184Q1170 1536 1161 1527T1152 1504V1440Q1152 1426 1161 1417T1184 1408H1248Q1262 1408 1271 1417T1280 1440z" />
    <glyph glyph-name="bullhorn"
      unicode="&#xE045;"
      horiz-adv-x="1792" d=" M1664 1152Q1717 1152 1754.5 1114.5T1792 1024T1754.5 933.5T1664 896V512Q1664 460 1626 422T1536 384Q1119 731 724 764Q666 745 633 698T602 597.5T642 505Q622 472 619 439.5T625 381.5T658.5 326.5T706.5 276.5T768 226Q739 168 656.5 143T488 131.5T356 187Q349 210 326.5 274.5T294.5 369T271.5 458T256.5 559T260 657.5T282 768H160Q94 768 47 815T0 928V1120Q0 1186 47 1233T160 1280H640Q1075 1280 1536 1664Q1588 1664 1626 1626T1664 1536V1152zM1536 548V1502Q1142 1200 768 1159V889Q1145 847 1536 548z" />
    <glyph glyph-name="bullseye"
      unicode="&#xE046;"
      horiz-adv-x="1792" d=" M1152 896Q1152 790 1077 715T896 640T715 715T640 896T715 1077T896 1152T1077 1077T1152 896zM1280 896Q1280 1055 1167.5 1167.5T896 1280T624.5 1167.5T512 896T624.5 624.5T896 512T1167.5 624.5T1280 896zM1408 896Q1408 684 1258 534T896 384T534 534T384 896T534 1258T896 1408T1258 1258T1408 896zM1536 896Q1536 1026 1485 1144.5T1348.5 1348.5T1144.5 1485T896 1536T647.5 1485T443.5 1348.5T307 1144.5T256 896T307 647.5T443.5 443.5T647.5 307T896 256T1144.5 307T1348.5 443.5T1485 647.5T1536 896zM1664 896Q1664 687 1561 510.5T1281.5 231T896 128T510.5 231T231 510.5T128 896T231 1281.5T510.5 1561T896 1664T1281.5 1561T1561 1281.5T1664 896z" />
    <glyph glyph-name="bus"
      unicode="&#xE047;"
      horiz-adv-x="1792" d=" M512 576Q512 629 474.5 666.5T384 704T293.5 666.5T256 576T293.5 485.5T384 448T474.5 485.5T512 576zM1536 576Q1536 629 1498.5 666.5T1408 704T1317.5 666.5T1280 576T1317.5 485.5T1408 448T1498.5 485.5T1536 576zM1490 972L1418 1356Q1413 1379 1395.5 1393.5T1355 1408H437Q414 1408 396.5 1393.5T374 1356L302 972Q297 942 316 919T365 896H1427Q1457 896 1476 919T1490 972zM1264 1584Q1264 1604 1250 1618T1216 1632H576Q556 1632 542 1618T528 1584T542 1550T576 1536H1216Q1236 1536 1250 1550T1264 1584zM1664 859V256H1536V128Q1536 75 1498.5 37.5T1408 0T1317.5 37.5T1280 128V256H512V128Q512 75 474.5 37.5T384 0T293.5 37.5T256 128V256H128V859Q128 971 153 1082L256 1536Q265 1614 353.5 1673T583.5 1762T896 1792T1208.5 1762T1438.5 1673T1536 1536L1641 1082Q1664 980 1664 859z" />
    <glyph glyph-name="buysellads"
      unicode="&#xE048;"
      horiz-adv-x="1792" d=" M1043 706H749L896 1257zM1129 384H1440L1116 1408H676L352 384H663L1046 698zM1664 1376V416Q1664 298 1579 213T1376 128H416Q298 128 213 213T128 416V1376Q128 1494 213 1579T416 1664H1376Q1494 1664 1579 1579T1664 1376z" />
    <glyph glyph-name="calculator"
      unicode="&#xE049;"
      horiz-adv-x="1792" d=" M384 256Q384 309 346.5 346.5T256 384T165.5 346.5T128 256T165.5 165.5T256 128T346.5 165.5T384 256zM768 256Q768 309 730.5 346.5T640 384T549.5 346.5T512 256T549.5 165.5T640 128T730.5 165.5T768 256zM384 640Q384 693 346.5 730.5T256 768T165.5 730.5T128 640T165.5 549.5T256 512T346.5 549.5T384 640zM1152 256Q1152 309 1114.5 346.5T1024 384T933.5 346.5T896 256T933.5 165.5T1024 128T1114.5 165.5T1152 256zM768 640Q768 693 730.5 730.5T640 768T549.5 730.5T512 640T549.5 549.5T640 512T730.5 549.5T768 640zM384 1024Q384 1077 346.5 1114.5T256 1152T165.5 1114.5T128 1024T165.5 933.5T256 896T346.5 933.5T384 1024zM1152 640Q1152 693 1114.5 730.5T1024 768T933.5 730.5T896 640T933.5 549.5T1024 512T1114.5 549.5T1152 640zM768 1024Q768 1077 730.5 1114.5T640 1152T549.5 1114.5T512 1024T549.5 933.5T640 896T730.5 933.5T768 1024zM1536 256V640Q1536 692 1498 730T1408 768T1318 730T1280 640V256Q1280 204 1318 166T1408 128T1498 166T1536 256zM1152 1024Q1152 1077 1114.5 1114.5T1024 1152T933.5 1114.5T896 1024T933.5 933.5T1024 896T1114.5 933.5T1152 1024zM1536 1344V1600Q1536 1626 1517 1645T1472 1664H192Q166 1664 147 1645T128 1600V1344Q128 1318 147 1299T192 1280H1472Q1498 1280 1517 1299T1536 1344zM1536 1024Q1536 1077 1498.5 1114.5T1408 1152T1317.5 1114.5T1280 1024T1317.5 933.5T1408 896T1498.5 933.5T1536 1024zM1664 1664V128Q1664 76 1626 38T1536 0H128Q76 0 38 38T0 128V1664Q0 1716 38 1754T128 1792H1536Q1588 1792 1626 1754T1664 1664z" />
    <glyph glyph-name="calendar-o"
      unicode="&#xE04A;"
      horiz-adv-x="1792" d=" M192 128H1600V1152H192V128zM576 1344V1632Q576 1646 567 1655T544 1664H480Q466 1664 457 1655T448 1632V1344Q448 1330 457 1321T480 1312H544Q558 1312 567 1321T576 1344zM1344 1344V1632Q1344 1646 1335 1655T1312 1664H1248Q1234 1664 1225 1655T1216 1632V1344Q1216 1330 1225 1321T1248 1312H1312Q1326 1312 1335 1321T1344 1344zM1728 1408V128Q1728 76 1690 38T1600 0H192Q140 0 102 38T64 128V1408Q64 1460 102 1498T192 1536H320V1632Q320 1698 367 1745T480 1792H544Q610 1792 657 1745T704 1632V1536H1088V1632Q1088 1698 1135 1745T1248 1792H1312Q1378 1792 1425 1745T1472 1632V1536H1600Q1652 1536 1690 1498T1728 1408z" />
    <glyph glyph-name="calendar"
      unicode="&#xE04B;"
      horiz-adv-x="1792" d=" M192 128H480V416H192V128zM544 128H864V416H544V128zM192 480H480V800H192V480zM544 480H864V800H544V480zM192 864H480V1152H192V864zM928 128H1248V416H928V128zM544 864H864V1152H544V864zM1312 128H1600V416H1312V128zM928 480H1248V800H928V480zM576 1344V1632Q576 1645 566.5 1654.5T544 1664H480Q467 1664 457.5 1654.5T448 1632V1344Q448 1331 457.5 1321.5T480 1312H544Q557 1312 566.5 1321.5T576 1344zM1312 480H1600V800H1312V480zM928 864H1248V1152H928V864zM1312 864H1600V1152H1312V864zM1344 1344V1632Q1344 1645 1334.5 1654.5T1312 1664H1248Q1235 1664 1225.5 1654.5T1216 1632V1344Q1216 1331 1225.5 1321.5T1248 1312H1312Q1325 1312 1334.5 1321.5T1344 1344zM1728 1408V128Q1728 76 1690 38T1600 0H192Q140 0 102 38T64 128V1408Q64 1460 102 1498T192 1536H320V1632Q320 1698 367 1745T480 1792H544Q610 1792 657 1745T704 1632V1536H1088V1632Q1088 1698 1135 1745T1248 1792H1312Q1378 1792 1425 1745T1472 1632V1536H1600Q1652 1536 1690 1498T1728 1408z" />
    <glyph glyph-name="camera-retro"
      unicode="&#xE04C;"
      horiz-adv-x="1792" d=" M928 960Q928 974 919 983T896 992Q830 992 783 945T736 832Q736 818 745 809T768 800T791 809T800 832Q800 872 828 900T896 928Q910 928 919 937T928 960zM1152 830Q1152 724 1077 649T896 574T715 649T640 830T715 1011T896 1086T1077 1011T1152 830zM128 256H1664V384H128V256zM1280 830Q1280 989 1167.5 1101.5T896 1214T624.5 1101.5T512 830T624.5 558.5T896 446T1167.5 558.5T1280 830zM256 1472H640V1600H256V1472zM128 1280H1664V1536H836L772 1408H128V1280zM1792 1536V256Q1792 203 1754.5 165.5T1664 128H128Q75 128 37.5 165.5T0 256V1536Q0 1589 37.5 1626.5T128 1664H1664Q1717 1664 1754.5 1626.5T1792 1536z" />
    <glyph glyph-name="camera"
      unicode="&#xE04D;"
      horiz-adv-x="1792" d=" M896 1120Q1015 1120 1099.5 1035.5T1184 832T1099.5 628.5T896 544T692.5 628.5T608 832T692.5 1035.5T896 1120zM1600 1536Q1706 1536 1781 1461T1856 1280V384Q1856 278 1781 203T1600 128H192Q86 128 11 203T-64 384V1280Q-64 1386 11 1461T192 1536H416L467 1672Q486 1721 536.5 1756.5T640 1792H1152Q1205 1792 1255.5 1756.5T1325 1672L1376 1536H1600zM896 384Q1081 384 1212.5 515.5T1344 832T1212.5 1148.5T896 1280T579.5 1148.5T448 832T579.5 515.5T896 384z" />
    <glyph glyph-name="car"
      unicode="&#xE04E;"
      horiz-adv-x="1792" d=" M352 704Q352 770 305 817T192 864T79 817T32 704T79 591T192 544T305 591T352 704zM388 1024H1404L1315 1381Q1313 1389 1301 1398.5T1280 1408H512Q503 1408 491 1398.5T477 1381zM1760 704Q1760 770 1713 817T1600 864T1487 817T1440 704T1487 591T1600 544T1713 591T1760 704zM1920 800V416Q1920 402 1911 393T1888 384H1792V256Q1792 176 1736 120T1600 64T1464 120T1408 256V384H384V256Q384 176 328 120T192 64T56 120T0 256V384H-96Q-110 384 -119 393T-128 416V800Q-128 893 -62.5 958.5T96 1024H124L229 1443Q252 1537 333 1600.5T512 1664H1280Q1378 1664 1459 1600.5T1563 1443L1668 1024H1696Q1789 1024 1854.5 958.5T1920 800z" />
    <glyph glyph-name="caret-down"
      unicode="&#xE04F;"
      horiz-adv-x="1792" d=" M1408 1088Q1408 1062 1389 1043L941 595Q922 576 896 576T851 595L403 1043Q384 1062 384 1088T403 1133T448 1152H1344Q1370 1152 1389 1133T1408 1088z" />
    <glyph glyph-name="caret-left"
      unicode="&#xE050;"
      horiz-adv-x="1792" d=" M1216 1344V448Q1216 422 1197 403T1152 384T1107 403L659 851Q640 870 640 896T659 941L1107 1389Q1126 1408 1152 1408T1197 1389T1216 1344z" />
    <glyph glyph-name="caret-right"
      unicode="&#xE051;"
      horiz-adv-x="1792" d=" M1152 896Q1152 870 1133 851L685 403Q666 384 640 384T595 403T576 448V1344Q576 1370 595 1389T640 1408T685 1389L1133 941Q1152 922 1152 896z" />
    <glyph glyph-name="caret-square-o-down"
      unicode="&#xE052;"
      horiz-adv-x="1792" d=" M1273 1117Q1291 1082 1268 1051L948 603Q929 576 896 576T844 603L524 1051Q501 1082 519 1117Q536 1152 576 1152H1216Q1256 1152 1273 1117zM1408 416V1376Q1408 1389 1398.5 1398.5T1376 1408H416Q403 1408 393.5 1398.5T384 1376V416Q384 403 393.5 393.5T416 384H1376Q1389 384 1398.5 393.5T1408 416zM1664 1376V416Q1664 297 1579.5 212.5T1376 128H416Q297 128 212.5 212.5T128 416V1376Q128 1495 212.5 1579.5T416 1664H1376Q1495 1664 1579.5 1579.5T1664 1376z" />
    <glyph glyph-name="caret-square-o-left"
      unicode="&#xE053;"
      horiz-adv-x="1792" d=" M1152 1216V576Q1152 550 1133 531T1088 512Q1068 512 1051 524L603 844Q576 863 576 896T603 948L1051 1268Q1068 1280 1088 1280Q1114 1280 1133 1261T1152 1216zM1408 416V1376Q1408 1389 1398.5 1398.5T1376 1408H416Q403 1408 393.5 1398.5T384 1376V416Q384 403 393.5 393.5T416 384H1376Q1389 384 1398.5 393.5T1408 416zM1664 1376V416Q1664 297 1579.5 212.5T1376 128H416Q297 128 212.5 212.5T128 416V1376Q128 1495 212.5 1579.5T416 1664H1376Q1495 1664 1579.5 1579.5T1664 1376z" />
    <glyph glyph-name="caret-square-o-right"
      unicode="&#xE054;"
      horiz-adv-x="1792" d=" M1216 896Q1216 863 1189 844L741 524Q710 501 675 519Q640 536 640 576V1216Q640 1256 675 1273Q710 1291 741 1268L1189 948Q1216 929 1216 896zM1408 416V1376Q1408 1390 1399 1399T1376 1408H416Q402 1408 393 1399T384 1376V416Q384 402 393 393T416 384H1376Q1390 384 1399 393T1408 416zM1664 1376V416Q1664 297 1579.5 212.5T1376 128H416Q297 128 212.5 212.5T128 416V1376Q128 1495 212.5 1579.5T416 1664H1376Q1495 1664 1579.5 1579.5T1664 1376z" />
    <glyph glyph-name="caret-square-o-up"
      unicode="&#xE055;"
      horiz-adv-x="1792" d=" M1273 675Q1256 640 1216 640H576Q536 640 519 675Q501 710 524 741L844 1189Q863 1216 896 1216T948 1189L1268 741Q1291 710 1273 675zM1408 416V1376Q1408 1389 1398.5 1398.5T1376 1408H416Q403 1408 393.5 1398.5T384 1376V416Q384 403 393.5 393.5T416 384H1376Q1389 384 1398.5 393.5T1408 416zM1664 1376V416Q1664 297 1579.5 212.5T1376 128H416Q297 128 212.5 212.5T128 416V1376Q128 1495 212.5 1579.5T416 1664H1376Q1495 1664 1579.5 1579.5T1664 1376z" />
    <glyph glyph-name="caret-up"
      unicode="&#xE056;"
      horiz-adv-x="1792" d=" M1408 576Q1408 550 1389 531T1344 512H448Q422 512 403 531T384 576T403 621L851 1069Q870 1088 896 1088T941 1069L1389 621Q1408 602 1408 576z" />
    <glyph glyph-name="cart-arrow-down"
      unicode="&#xE057;"
      horiz-adv-x="1792" d=" M1280 1088Q1280 1114 1261 1133T1216 1152T1171 1133L1024 987V1280Q1024 1306 1005 1325T960 1344T915 1325T896 1280V987L749 1133Q730 1152 704 1152T659 1133T640 1088T659 1043L915 787Q934 768 960 768T1005 787L1261 1043Q1280 1062 1280 1088zM640 256Q640 203 602.5 165.5T512 128T421.5 165.5T384 256T421.5 346.5T512 384T602.5 346.5T640 256zM1536 256Q1536 203 1498.5 165.5T1408 128T1317.5 165.5T1280 256T1317.5 346.5T1408 384T1498.5 346.5T1536 256zM1664 1344V832Q1664 808 1648 789.5T1607 768L563 646Q564 639 567.5 624.5T573.5 598T576 576Q576 560 552 512H1472Q1498 512 1517 493T1536 448T1517 403T1472 384H448Q422 384 403 403T384 448Q384 462 395 487.5T424.5 547T445 585L268 1408H64Q38 1408 19 1427T0 1472T19 1517T64 1536H320Q336 1536 348.5 1529.5T368.5 1514T381.5 1489.5T389 1463T394.5 1433.5T399 1408H1600Q1626 1408 1645 1389T1664 1344z" />
    <glyph glyph-name="cart-plus"
      unicode="&#xE058;"
      horiz-adv-x="1792" d=" M1280 1088Q1280 1114 1261 1133T1216 1152H1088V1280Q1088 1306 1069 1325T1024 1344T979 1325T960 1280V1152H832Q806 1152 787 1133T768 1088T787 1043T832 1024H960V896Q960 870 979 851T1024 832T1069 851T1088 896V1024H1216Q1242 1024 1261 1043T1280 1088zM704 256Q704 203 666.5 165.5T576 128T485.5 165.5T448 256T485.5 346.5T576 384T666.5 346.5T704 256zM1600 256Q1600 203 1562.5 165.5T1472 128T1381.5 165.5T1344 256T1381.5 346.5T1472 384T1562.5 346.5T1600 256zM1728 1344V832Q1728 808 1712 789.5T1671 768L627 646Q628 639 631.5 624.5T637.5 598T640 576Q640 560 616 512H1536Q1562 512 1581 493T1600 448T1581 403T1536 384H512Q486 384 467 403T448 448Q448 462 459 487.5T488.5 547T509 585L332 1408H128Q102 1408 83 1427T64 1472T83 1517T128 1536H384Q400 1536 412.5 1529.5T432.5 1514T445.5 1489.5T453 1463T458.5 1433.5T463 1408H1664Q1690 1408 1709 1389T1728 1344z" />
    <glyph glyph-name="cc-amex"
      unicode="&#xE059;"
      horiz-adv-x="1792" d=" M-137 1110H-48L-93 1218zM484 584L558 663L488 742H325V693H467V638H325V584H484zM642 662L741 552V769zM930 709Q930 742 890 742H806V673H889Q930 673 930 709zM1219 713Q1219 742 1177 742H1095V681H1176Q1219 681 1219 713zM941 1179Q941 1208 899 1208H817V1148H898Q941 1148 941 1179zM1400 1110H1489L1445 1218zM443 1265V994H377V1206L283 994H226L132 1206V994H0L-25 1054H-160L-185 994H-255L-139 1265H-43L67 1008V1265H173L258 1081L335 1265H443zM999 709Q999 689 993.5 674T979.5 649T957 632.5T931 622.5T899.5 618T868 617T835.5 617.5T806 618V527H680L600 617L517 527H261V798H521L601 709L683 798H890Q999 798 999 709zM708 1050V994H491V1265H708V1208H556V1159H704V1104H556V1050H708zM2048 491V262Q2048 207 2009.5 167.5T1916 128H-124Q-179 128 -217.5 167.5T-256 262V940H-145L-120 1001H-65L-40 940H178V986L197 940H310L330 987V940H871V1039L881 1040Q891 1040 891 1026V940H1170V963Q1193 951 1225 945T1277.5 938.5T1340.5 939T1392 940L1417 1001H1473L1498 940H1725V998L1759 940H1941V1318H1761V1274L1736 1318H1551V1274L1528 1318H1279Q1210 1318 1170 1296V1318H998V1296Q974 1318 925 1318H297L254 1221L211 1318H13V1274L-9 1318H-178L-256 1139V1530Q-256 1585 -217.5 1624.5T-124 1664H1916Q1971 1664 2009.5 1624.5T2048 1530V852H1928Q1877 852 1847 830V852H1670Q1615 852 1592 830V852H1276V830Q1245 852 1189 852H980V830Q957 852 889 852H655L601 794L551 852H202V474H545L600 533L652 474H863V563H884Q943 563 974 576V474H1148V573H1156Q1164 573 1166 571T1168 561V474H1697Q1754 474 1785 498V474H1953Q2013 474 2048 491zM1290 725Q1290 702 1278 682T1244 653Q1269 644 1278 627T1287 581V527H1222V572Q1222 605 1210 615.5T1164 626H1095V527H1030V798H1184Q1232 798 1261 783T1290 725zM1013 1192Q1013 1168 1000.5 1148T967 1119Q993 1110 1001.5 1093.5T1010 1047V994H945Q945 1003 945.5 1020.5T945.5 1045.5T942.5 1064T934 1080T916.5 1088.5T887 1092H817V994H753V1265L906 1264Q955 1264 984 1249.5T1013 1192zM1542 583V527H1326V798H1542V742H1391V693H1539V638H1391V584zM1116 1265V994H1050V1265H1116zM1809 613Q1809 527 1707 527H1581V585H1707Q1741 585 1741 610Q1741 626 1724 631T1682.5 636T1633 639.5T1591 662T1574 717Q1574 756 1600 777T1666 798H1796V741H1677Q1641 741 1641 716Q1641 700 1658.5 695.5T1700.5 691.5T1749.5 689T1791.5 667.5T1809 613zM2048 663V562Q2024 527 1960 527H1835V585H1960Q1993 585 1993 610Q1993 623 1980.5 629T1949.5 634.5T1909.5 636.5T1869.5 644.5T1838.5 668.5T1826 717Q1826 756 1852.5 777T1919 798H2048V741H1930Q1894 741 1894 716Q1894 696 1923 694T1991.5 689T2048 663zM1883 1264V994H1791L1669 1197V994H1537L1511 1054H1377L1352 994H1277Q1148 994 1148 1127Q1148 1265 1281 1265H1344V1206Q1337 1206 1316 1207T1287.5 1207.5T1264.5 1205.5T1243 1199T1228.5 1185.5T1217 1162.5T1214 1129Q1214 1091 1227.5 1071T1277 1051H1306L1398 1264H1495L1604 1008V1264H1703L1817 1076V1264H1883z" />
    <glyph glyph-name="cc-discover"
      unicode="&#xE05A;"
      horiz-adv-x="1792" d=" M57 1015Q57 964 21 931Q-8 905 -68 905H-85V1125H-68Q-7 1125 21 1098Q57 1067 57 1015zM1833 1080Q1833 1028 1769 1028H1750V1129H1770Q1833 1129 1833 1080zM124 1015Q124 1089 74 1135.5T-55 1182H-150V849H-55Q19 849 64 887Q124 938 124 1015zM154 849H219V1182H154V849zM474 950Q474 990 453.5 1012T378 1054Q349 1064 338.5 1073T328 1096Q328 1112 341.5 1122.5T376 1133Q405 1133 429 1106L463 1150Q422 1187 365 1187Q321 1187 291 1159.5T261 1092Q261 1057 279 1036.5T343 1000Q380 987 388 981Q407 969 407 947Q407 927 393 913.5T357 900Q309 900 286 944L244 904Q288 840 359 840Q410 840 442 870.5T474 950zM752 860V937Q715 900 674 900Q625 900 593.5 932.5T562 1015Q562 1063 593.5 1096.5T671 1130Q714 1130 752 1092V1169Q712 1189 672 1189Q598 1189 546.5 1138.5T495 1015T546 891.5T671 841Q713 841 752 860zM1984 256V783Q1919 743 1839.5 699T1602 582T1272.5 444.5T855 310T351 192H1920Q1946 192 1965 211T1984 256zM1133 1013Q1133 1088 1080 1141T952 1194T824 1141T771 1013T824 885T952 832T1080 885T1133 1013zM1285 840L1429 1182H1358L1268 958L1179 1182H1108L1250 840H1285zM1458 849H1642V905H1523V995H1638V1051H1523V1125H1642V1182H1458V849zM1849 849H1929L1824 989Q1900 1005 1900 1083Q1900 1130 1869 1156T1782 1182H1685V849H1750V982H1759zM2048 1530V262Q2048 206 2009.5 167T1916 128H-124Q-179 128 -217.5 167T-256 262V1530Q-256 1586 -217.5 1625T-124 1664H1916Q1971 1664 2009.5 1625T2048 1530z" />
    <glyph glyph-name="cc-mastercard"
      unicode="&#xE05B;"
      horiz-adv-x="1792" d=" M415 859H402Q355 859 355 827Q355 805 375 805Q392 805 403 820T415 859zM810 895H872V898Q873 902 872.5 904.5T871.5 911.5T869.5 919.5T865 926T857.5 931T846 933Q818 933 810 895zM1350 859H1338Q1290 859 1290 827Q1290 805 1310 805Q1327 805 1338 820T1350 859zM1669 885Q1669 926 1639 926Q1620 926 1608 906T1596 855Q1596 813 1624 813Q1644 813 1656.5 833T1669 885zM224 1026H311L267 764H211L243 965L172 764H133L129 964L95 764H42L86 1026H167L169 863zM477 919Q477 913 473 877Q457 776 456 764H409L410 786Q390 760 352 760Q329 760 314.5 776T300 818Q300 857 326 878.5T399 900Q413 900 422 899Q422 902 422.5 904.5T423.5 909T424 912Q424 932 388 932Q359 932 329 922Q329 926 336 970Q374 981 403 981Q477 981 477 919zM633 977L625 928Q603 931 584 931Q557 931 557 914Q557 906 561.5 902T583 891Q623 872 623 831Q623 759 536 760Q502 760 478 766Q478 768 485 815Q514 807 536 807Q568 807 568 826Q568 833 563.5 837.5T542 850Q499 870 499 909Q499 981 583 981Q613 981 633 977zM721 977H749L742 925H713Q711 908 706.5 884.5T699.5 846T697 828Q697 812 716 812Q724 812 732 814L724 767Q703 760 684 760Q641 760 639 807Q639 819 647 863Q650 883 672 1009H727zM924 904Q924 881 917 852H806Q803 830 816 819T854 808Q884 808 912 822L903 768Q873 760 846 760Q751 760 751 855Q751 910 778.5 945.5T848 981Q883 981 903.5 960T924 904zM1063 978Q1050 955 1041 916Q1019 918 1010 892T985 764H929L932 778Q954 908 961 977H1012L1009 944Q1023 965 1034.5 973.5T1063 978zM1250 1019L1241 962Q1213 976 1191 976Q1160 976 1140 948.5T1120 878Q1120 848 1133.5 831T1172 814Q1193 814 1220 827L1210 768Q1182 760 1160 760Q1115 760 1088.5 790.5T1062 873Q1062 943 1097.5 987.5T1189 1032Q1215 1032 1250 1019zM1412 919Q1412 901 1408 877Q1395 798 1391 764H1345L1346 786Q1326 760 1287 760Q1264 760 1250 776T1236 818Q1236 857 1261.5 878.5T1334 900Q1349 900 1357 899Q1359 906 1359 912Q1359 932 1323 932Q1294 932 1264 922Q1264 926 1272 970Q1310 981 1339 981Q1412 981 1412 919zM1553 978Q1539 954 1532 916Q1509 918 1500.5 893T1475 764H1419L1422 778Q1441 882 1451 977H1503Q1503 966 1499 944Q1514 965 1525.5 973.5T1553 978zM1694 1026H1750L1707 764H1654L1657 783Q1634 760 1605 760Q1574 760 1555.5 784T1537 848Q1537 901 1564.5 940T1629 979Q1660 979 1682 950zM1805 896Q1805 1044 1732.5 1169T1534.5 1367T1261 1440Q1080 1440 933 1330Q1060 1214 1104 1046H1054Q1010 1196 896 1299Q782 1196 738 1046H688Q732 1214 859 1330Q712 1440 531 1440Q383 1440 257.5 1367T59.5 1169T-13 896T59.5 623T257.5 425T531 352Q712 352 859 462Q739 573 694 726H744Q790 588 896 493Q1002 588 1048 726H1098Q1053 573 933 462Q1080 352 1261 352Q1409 352 1534.5 425T1732.5 623T1805 896zM2048 1536V256Q2048 204 2010 166T1920 128H-128Q-180 128 -218 166T-256 256V1536Q-256 1588 -218 1626T-128 1664H1920Q1972 1664 2010 1626T2048 1536z" />
    <glyph glyph-name="cc-paypal"
      unicode="&#xE05C;"
      horiz-adv-x="1792" d=" M66 945H51Q32 945 32 963Q32 991 51 1048Q56 1063 66 1067.5T94 1072Q171 1072 171 1023Q171 982 140.5 963.5T66 945zM408 784Q361 784 361 813Q361 875 484 875L487 872Q482 784 408 784zM1182 943H1167Q1148 943 1148 962Q1148 990 1167 1047Q1172 1062 1181.5 1066T1210 1070Q1287 1070 1287 1021Q1287 980 1256.5 961.5T1182 943zM1524 783Q1477 783 1477 813Q1477 875 1600 875L1603 872Q1598 783 1524 783zM117 1150H-11Q-19 1150 -25.5 1146T-34 1138.5T-41 1126Q-44 1119 -86 936T-128 744Q-128 737 -122.5 731.5T-109 726H-47Q-22 726 -14.5 760.5L0.5 829.5L33 864Q80 864 120.5 871.5T201 896T264.5 948.5T288 1033Q288 1069 273.5 1094T232.5 1130.5T179 1146T117 1150zM463 1054Q425 1054 389 1048Q387 1048 380.5 1047T371.5 1045.5L364 1044L356.5 1042L350 1039L343.5 1035L338.5 1030L334 1023L330 1014Q321 985 321 975T330 965Q335 965 351.5 970T371 976Q401 984 429 984Q503 984 503 948Q503 937 493 934Q485 932 475 931T453.5 929.5T436 928Q398 924 371.5 918T315 898.5T269.5 859.5T254 797Q254 759 280 737.5T344 716Q368 716 389.5 722.5T422.5 735.5T461 759Q458 752 458 744T463.5 730.5T476 725H532Q533 726 539 728.5T546.5 732T551.5 735.5T556.5 741T559 749L604 943Q608 956 608 973Q608 1054 463 1054zM991 1049H917Q895 1049 878 1026Q873 1019 848.5 975T802 893.5T776 855L771 859Q771 936 744 1025Q743 1030 740.5 1033.5T734.5 1040T728 1045T719.5 1048T711 1049.5T701.5 1050.5T692.5 1051H674Q636 1051 636 1030L637 1025Q642 972 662 874T687 731Q689 715 689 707Q689 688 658.5 645.5T628 587Q628 574 668 574Q729 574 744 599L989 1014Q999 1034 999 1040Q999 1049 991 1049zM1233 1148H1104Q1086 1148 1075 1125Q1069 1112 1028.5 933.5T988 743Q988 723 1031 723H1056.5L1066 724L1074.5 726L1083 729L1089.5 733.5L1095 739.5L1098 748L1119 839Q1121 849 1129.5 856T1149 863Q1196 863 1236.5 870T1317 894.5T1380.5 947T1404 1031Q1404 1067 1389.5 1092T1348.5 1128.5T1295 1144T1233 1148zM1579 1054Q1553 1054 1505 1048Q1467 1042 1457 1032Q1450 1024 1446 1013Q1438 989 1438 974Q1438 964 1446 964Q1447 964 1487 976Q1517 984 1545 984Q1619 984 1619 948Q1619 936 1609 934Q1605 933 1552 927Q1514 923 1487.5 917T1431 897.5T1385.5 858.5T1370 796T1396 737.5T1460 716Q1484 716 1505 722T1539 735T1577 759Q1574 744 1574 743Q1574 738 1576 734.5T1582.5 729T1590.5 725.5T1601 723.5T1610.5 723H1628Q1670 723 1676 748L1721 942Q1724 957 1724 973Q1724 1054 1579 1054zM1901 1145H1846Q1821 1145 1813 1105Q1803 1061 1776.5 938T1734 748V743Q1734 727 1750 725H1808Q1818 725 1826.5 731.5T1837 748L1920 1122H1919L1920 1127Q1920 1134 1914.5 1139.5T1901 1145zM2048 1536V256Q2048 204 2010 166T1920 128H-128Q-180 128 -218 166T-256 256V1536Q-256 1588 -218 1626T-128 1664H1920Q1972 1664 2010 1626T2048 1536z" />
    <glyph glyph-name="cc-stripe"
      unicode="&#xE05D;"
      horiz-adv-x="1792" d=" M1341 889Q1341 820 1320 783Q1301 748 1268 748Q1245 748 1227 757V981Q1256 1011 1284 1011Q1341 1011 1341 889zM1779 925H1669Q1675 1023 1725 1023Q1776 1023 1779 925zM220 790Q220 849 187 881.5T86 939Q50 952 34 963T18 988Q18 1014 56 1014Q114 1014 180 981L198 1093Q131 1125 49 1125Q-28 1125 -74 1087Q-122 1048 -122 978Q-122 920 -89.5 887.5T10 831Q49 817 64.5 805.5T80 778Q80 747 32 747Q3 747 -38 759.5T-110 790L-128 677Q-56 636 40 636Q121 636 169 673Q220 714 220 790zM515 1005L534 1116H438V1251L309 1230L291 1116L245 1108L228 1005H290V786Q290 702 334 666Q372 636 445 636Q477 636 524 647V765Q492 758 480 758Q438 758 438 808V1005H515zM831 980V1119Q816 1122 803 1122Q771 1122 747.5 1106T714 1060L704 1116H573V645H723V951Q749 982 805 982Q821 982 831 980zM868 645H1018V1116H868V645zM1490 894Q1490 1016 1445 1073Q1405 1125 1334 1125Q1270 1125 1217 1069L1209 1116H1077V471L1227 496V647Q1263 636 1295 636Q1378 636 1429 692Q1490 757 1490 894zM1022 1242Q1022 1275 999 1298T943 1321T887 1298T864 1242T887 1185.5T943 1162T999 1185.5T1022 1242zM1920 885Q1920 998 1872 1061Q1822 1125 1728 1125Q1632 1125 1576.5 1059T1521 879Q1521 751 1584 691Q1639 636 1745 636Q1846 636 1905 676L1889 779Q1832 748 1761 748Q1718 748 1698 767Q1675 786 1670 833H1918Q1920 847 1920 885zM2048 1536V256Q2048 204 2010 166T1920 128H-128Q-180 128 -218 166T-256 256V1536Q-256 1588 -218 1626T-128 1664H1920Q1972 1664 2010 1626T2048 1536z" />
    <glyph glyph-name="cc-visa"
      unicode="&#xE05E;"
      horiz-adv-x="1792" d=" M1719 802H1581Q1595 839 1647 981L1650 990Q1654 1000 1660 1016T1669 1042L1681 987zM275 867L217 1162Q206 1216 142 1216H-126L-128 1203Q183 1124 275 867zM454 1216L292 778L275 867Q249 937 190 996.5T59 1085L194 575H369L630 1216H454zM593 574H759L863 1216H697zM1361 1200Q1292 1227 1212 1227Q1089 1227 1011 1168T932 1015Q931 913 1077 841Q1125 818 1144 800T1163 761Q1163 731 1133 715T1064 699Q978 699 908 732L886 743L863 599Q937 565 1048 565Q1178 564 1256.5 624T1337 784Q1337 890 1197 958Q1148 983 1126 1000T1104 1038Q1104 1060 1128.5 1076.5T1199 1093Q1269 1094 1323 1069L1338 1061zM1786 1216H1658Q1593 1216 1571 1162L1325 574H1499L1534 670H1746Q1751 648 1766 574H1920zM2048 1536V256Q2048 204 2010 166T1920 128H-128Q-180 128 -218 166T-256 256V1536Q-256 1588 -218 1626T-128 1664H1920Q1972 1664 2010 1626T2048 1536z" />
    <glyph glyph-name="cc"
      unicode="&#xE05F;"
      horiz-adv-x="1792" d=" M657 784H864Q850 626 765.5 535.5T551 445Q389 445 296.5 561T204 877Q204 1071 297 1188.5T530 1306Q678 1306 762 1219T859 972H656Q651 1036 620.5 1071T539 1106Q482 1106 450.5 1045.5T419 868Q419 820 424 784T442 714.5T482 663T548 645Q643 645 657 784zM1369 784H1575Q1561 626 1477 535.5T1263 445Q1101 445 1008.5 561T916 877Q916 1071 1009 1188.5T1242 1306Q1390 1306 1474 1219T1571 972H1367Q1363 1036 1332 1071T1251 1106Q1194 1106 1162.5 1045.5T1131 868Q1131 820 1136 784T1154 714.5T1193.5 663T1259 645Q1308 645 1335.5 683T1369 784zM1728 903Q1728 1110 1712.5 1210T1652 1371Q1646 1379 1638.5 1385T1617 1400T1601 1411Q1515 1474 904 1474Q279 1474 194 1411Q189 1407 176.5 1399.5T155.5 1385.5T141 1371Q96 1311 81 1211.5T66 903Q66 695 81 595.5T141 435Q147 427 156 420T176.5 406T194 394Q238 361 433.5 345T904 329Q1514 329 1601 394Q1606 398 1618 405T1638.5 419T1652 435Q1698 495 1713 594T1728 903zM1920 1664V128H-128V1664H1920z" />
    <glyph glyph-name="certificate"
      unicode="&#xE060;"
      horiz-adv-x="1792" d=" M1504 896L1642 761Q1672 733 1662 691Q1650 650 1610 640L1422 592L1475 406Q1487 365 1456 336Q1427 305 1386 317L1200 370L1152 182Q1142 142 1101 130Q1089 128 1082 128Q1051 128 1031 150L896 288L761 150Q733 120 691 130Q650 141 640 182L592 370L406 317Q365 305 336 336Q305 365 317 406L370 592L182 640Q142 650 130 691Q120 733 150 761L288 896L150 1031Q120 1059 130 1101Q142 1142 182 1152L370 1200L317 1386Q305 1427 336 1456Q365 1487 406 1475L592 1422L640 1610Q650 1651 691 1661Q732 1673 761 1642L896 1503L1031 1642Q1060 1672 1101 1661Q1142 1651 1152 1610L1200 1422L1386 1475Q1427 1487 1456 1456Q1487 1427 1475 1386L1422 1200L1610 1152Q1650 1142 1662 1101Q1672 1059 1642 1031z" />
    <glyph glyph-name="chain-broken"
      unicode="&#xE061;"
      horiz-adv-x="1792" d=" M503 521L247 265Q237 256 224 256Q212 256 201 265Q192 275 192 288T201 311L457 567Q467 576 480 576T503 567Q512 557 512 544T503 521zM672 480V160Q672 146 663 137T640 128T617 137T608 160V480Q608 494 617 503T640 512T663 503T672 480zM448 704Q448 690 439 681T416 672H96Q82 672 73 681T64 704T73 727T96 736H416Q430 736 439 727T448 704zM1712 576Q1712 456 1627 373L1480 227Q1397 144 1277 144Q1156 144 1073 229L739 564Q718 585 697 620L936 638L1209 364Q1236 337 1277 336.5T1345 363L1492 509Q1520 537 1520 576Q1520 616 1492 644L1218 919L1236 1158Q1271 1137 1292 1116L1628 780Q1712 694 1712 576zM1095 1300L856 1282L583 1556Q555 1584 515 1584Q476 1584 447 1557L300 1411Q272 1383 272 1344Q272 1304 300 1276L574 1002L556 762Q521 783 500 804L164 1140Q80 1226 80 1344Q80 1464 165 1547L312 1693Q395 1776 515 1776Q636 1776 719 1691L1053 1356Q1074 1335 1095 1300zM1728 1216Q1728 1202 1719 1193T1696 1184H1376Q1362 1184 1353 1193T1344 1216T1353 1239T1376 1248H1696Q1710 1248 1719 1239T1728 1216zM1184 1760V1440Q1184 1426 1175 1417T1152 1408T1129 1417T1120 1440V1760Q1120 1774 1129 1783T1152 1792T1175 1783T1184 1760zM1591 1609L1335 1353Q1324 1344 1312 1344T1289 1353Q1280 1363 1280 1376T1289 1399L1545 1655Q1555 1664 1568 1664T1591 1655Q1600 1645 1600 1632T1591 1609z" />
    <glyph glyph-name="check-circle-o"
      unicode="&#xE062;"
      horiz-adv-x="1792" d=" M1299 979L877 557Q858 538 832 538T787 557L493 851Q474 870 474 896T493 941L595 1043Q614 1062 640 1062T685 1043L832 896L1107 1171Q1126 1190 1152 1190T1197 1171L1299 1069Q1318 1050 1318 1024T1299 979zM1440 896Q1440 1044 1367 1169T1169 1367T896 1440T623 1367T425 1169T352 896T425 623T623 425T896 352T1169 425T1367 623T1440 896zM1664 896Q1664 687 1561 510.5T1281.5 231T896 128T510.5 231T231 510.5T128 896T231 1281.5T510.5 1561T896 1664T1281.5 1561T1561 1281.5T1664 896z" />
    <glyph glyph-name="check-circle"
      unicode="&#xE063;"
      horiz-adv-x="1792" d=" M1412 1058Q1412 1086 1394 1104L1303 1194Q1284 1213 1258 1213T1213 1194L805 787L579 1013Q560 1032 534 1032T489 1013L398 923Q380 905 380 877Q380 850 398 832L760 470Q779 451 805 451Q832 451 851 470L1394 1013Q1412 1031 1412 1058zM1664 896Q1664 687 1561 510.5T1281.5 231T896 128T510.5 231T231 510.5T128 896T231 1281.5T510.5 1561T896 1664T1281.5 1561T1561 1281.5T1664 896z" />
    <glyph glyph-name="check-square-o"
      unicode="&#xE064;"
      horiz-adv-x="1792" d=" M1472 862V544Q1472 425 1387.5 340.5T1184 256H352Q233 256 148.5 340.5T64 544V1376Q64 1495 148.5 1579.5T352 1664H1184Q1247 1664 1301 1639Q1316 1632 1319 1616Q1322 1599 1310 1587L1261 1538Q1251 1528 1238 1528Q1235 1528 1229 1530Q1206 1536 1184 1536H352Q286 1536 239 1489T192 1376V544Q192 478 239 431T352 384H1184Q1250 384 1297 431T1344 544V798Q1344 811 1353 820L1417 884Q1427 894 1440 894Q1446 894 1452 891Q1472 883 1472 862zM1703 1351L889 537Q865 513 832 513T775 537L345 967Q321 991 321 1024T345 1081L455 1191Q479 1215 512 1215T569 1191L832 928L1479 1575Q1503 1599 1536 1599T1593 1575L1703 1465Q1727 1441 1727 1408T1703 1351z" />
    <glyph glyph-name="check-square"
      unicode="&#xE065;"
      horiz-adv-x="1792" d=" M813 493L1427 1107Q1446 1126 1446 1152T1427 1197L1325 1299Q1306 1318 1280 1318T1235 1299L768 832L557 1043Q538 1062 512 1062T467 1043L365 941Q346 922 346 896T365 851L723 493Q742 474 768 474T813 493zM1664 1376V416Q1664 297 1579.5 212.5T1376 128H416Q297 128 212.5 212.5T128 416V1376Q128 1495 212.5 1579.5T416 1664H1376Q1495 1664 1579.5 1579.5T1664 1376z" />
    <glyph glyph-name="check"
      unicode="&#xE066;"
      horiz-adv-x="1792" d=" M1671 1226Q1671 1186 1643 1158L919 434L783 298Q755 270 715 270T647 298L511 434L149 796Q121 824 121 864T149 932L285 1068Q313 1096 353 1096T421 1068L715 773L1371 1430Q1399 1458 1439 1458T1507 1430L1643 1294Q1671 1266 1671 1226z" />
    <glyph glyph-name="chevron-circle-down"
      unicode="&#xE067;"
      horiz-adv-x="1792" d=" M941 493L1395 947Q1414 966 1414 992T1395 1037L1293 1139Q1274 1158 1248 1158T1203 1139L896 832L589 1139Q570 1158 544 1158T499 1139L397 1037Q378 1018 378 992T397 947L851 493Q870 474 896 474T941 493zM1664 896Q1664 687 1561 510.5T1281.5 231T896 128T510.5 231T231 510.5T128 896T231 1281.5T510.5 1561T896 1664T1281.5 1561T1561 1281.5T1664 896z" />
    <glyph glyph-name="chevron-circle-left"
      unicode="&#xE068;"
      horiz-adv-x="1792" d=" M1037 397L1139 499Q1158 518 1158 544T1139 589L832 896L1139 1203Q1158 1222 1158 1248T1139 1293L1037 1395Q1018 1414 992 1414T947 1395L493 941Q474 922 474 896T493 851L947 397Q966 378 992 378T1037 397zM1664 896Q1664 687 1561 510.5T1281.5 231T896 128T510.5 231T231 510.5T128 896T231 1281.5T510.5 1561T896 1664T1281.5 1561T1561 1281.5T1664 896z" />
    <glyph glyph-name="chevron-circle-right"
      unicode="&#xE069;"
      horiz-adv-x="1792" d=" M845 397L1299 851Q1318 870 1318 896T1299 941L845 1395Q826 1414 800 1414T755 1395L653 1293Q634 1274 634 1248T653 1203L960 896L653 589Q634 570 634 544T653 499L755 397Q774 378 800 378T845 397zM1664 896Q1664 687 1561 510.5T1281.5 231T896 128T510.5 231T231 510.5T128 896T231 1281.5T510.5 1561T896 1664T1281.5 1561T1561 1281.5T1664 896z" />
    <glyph glyph-name="chevron-circle-up"
      unicode="&#xE06A;"
      horiz-adv-x="1792" d=" M1293 653L1395 755Q1414 774 1414 800T1395 845L941 1299Q922 1318 896 1318T851 1299L397 845Q378 826 378 800T397 755L499 653Q518 634 544 634T589 653L896 960L1203 653Q1222 634 1248 634T1293 653zM1664 896Q1664 687 1561 510.5T1281.5 231T896 128T510.5 231T231 510.5T128 896T231 1281.5T510.5 1561T896 1664T1281.5 1561T1561 1281.5T1664 896z" />
    <glyph glyph-name="chevron-down"
      unicode="&#xE06B;"
      horiz-adv-x="1792" d=" M1683 984L941 243Q922 224 896 224T851 243L109 984Q90 1003 90 1029.5T109 1075L275 1240Q294 1259 320 1259T365 1240L896 709L1427 1240Q1446 1259 1472 1259T1517 1240L1683 1075Q1702 1056 1702 1029.5T1683 984z" />
    <glyph glyph-name="chevron-left"
      unicode="&#xE06C;"
      horiz-adv-x="1792" d=" M1427 1491L896 960L1427 429Q1446 410 1446 384T1427 339L1261 173Q1242 154 1216 154T1171 173L429 915Q410 934 410 960T429 1005L1171 1747Q1190 1766 1216 1766T1261 1747L1427 1581Q1446 1562 1446 1536T1427 1491z" />
    <glyph glyph-name="chevron-right"
      unicode="&#xE06D;"
      horiz-adv-x="1792" d=" M1363 915L621 173Q602 154 576 154T531 173L365 339Q346 358 346 384T365 429L896 960L365 1491Q346 1510 346 1536T365 1581L531 1747Q550 1766 576 1766T621 1747L1363 1005Q1382 986 1382 960T1363 915z" />
    <glyph glyph-name="chevron-up"
      unicode="&#xE06E;"
      horiz-adv-x="1792" d=" M1683 461L1517 296Q1498 277 1472 277T1427 296L896 827L365 296Q346 277 320 277T275 296L109 461Q90 480 90 506.5T109 552L851 1293Q870 1312 896 1312T941 1293L1683 552Q1702 533 1702 506.5T1683 461z" />
    <glyph glyph-name="child"
      unicode="&#xE06F;"
      horiz-adv-x="1792" d=" M1444 1244L1152 952V128Q1152 82 1119 49T1040 16T961 49T928 128V512H864V128Q864 82 831 49T752 16T673 49T640 128V952L348 1244Q320 1272 320 1312T348 1380T416 1408T484 1380L712 1152H1080L1308 1380Q1336 1408 1376 1408T1444 1380T1472 1312T1444 1244zM1120 1408Q1120 1315 1054.5 1249.5T896 1184T737.5 1249.5T672 1408T737.5 1566.5T896 1632T1054.5 1566.5T1120 1408z" />
    <glyph glyph-name="circle-o-notch"
      unicode="&#xE070;"
      horiz-adv-x="1792" d=" M1792 896Q1792 714 1721 548T1530 262T1244 71T896 0T548 71T262 262T71 548T0 896Q0 1118 101 1310.5T377.5 1627.5T768 1783V1523Q547 1478 401.5 1302T256 896Q256 766 307 647.5T443.5 443.5T647.5 307T896 256T1144.5 307T1348.5 443.5T1485 647.5T1536 896Q1536 1126 1390.5 1302T1024 1523V1783Q1239 1752 1414.5 1627.5T1691 1310.5T1792 896z" />
    <glyph glyph-name="circle-o"
      unicode="&#xE071;"
      horiz-adv-x="1792" d=" M896 1440Q748 1440 623 1367T425 1169T352 896T425 623T623 425T896 352T1169 425T1367 623T1440 896T1367 1169T1169 1367T896 1440zM1664 896Q1664 687 1561 510.5T1281.5 231T896 128T510.5 231T231 510.5T128 896T231 1281.5T510.5 1561T896 1664T1281.5 1561T1561 1281.5T1664 896z" />
    <glyph glyph-name="circle-thin"
      unicode="&#xE072;"
      horiz-adv-x="1792" d=" M896 1536Q766 1536 647.5 1485T443.5 1348.5T307 1144.5T256 896T307 647.5T443.5 443.5T647.5 307T896 256T1144.5 307T1348.5 443.5T1485 647.5T1536 896T1485 1144.5T1348.5 1348.5T1144.5 1485T896 1536zM1664 896Q1664 687 1561 510.5T1281.5 231T896 128T510.5 231T231 510.5T128 896T231 1281.5T510.5 1561T896 1664T1281.5 1561T1561 1281.5T1664 896z" />
    <glyph glyph-name="circle"
      unicode="&#xE073;"
      horiz-adv-x="1792" d=" M1664 896Q1664 687 1561 510.5T1281.5 231T896 128T510.5 231T231 510.5T128 896T231 1281.5T510.5 1561T896 1664T1281.5 1561T1561 1281.5T1664 896z" />
    <glyph glyph-name="clipboard"
      unicode="&#xE074;"
      horiz-adv-x="1792" d=" M768 128H1664V768H1248Q1208 768 1180 796T1152 864V1280H768V128zM1024 1568V1632Q1024 1645 1014.5 1654.5T992 1664H288Q275 1664 265.5 1654.5T256 1632V1568Q256 1555 265.5 1545.5T288 1536H992Q1005 1536 1014.5 1545.5T1024 1568zM1280 896H1579L1280 1195V896zM1792 768V96Q1792 56 1764 28T1696 0H736Q696 0 668 28T640 96V256H96Q56 256 28 284T0 352V1696Q0 1736 28 1764T96 1792H1184Q1224 1792 1252 1764T1280 1696V1368Q1301 1355 1316 1340L1724 932Q1752 904 1772 856T1792 768z" />
    <glyph glyph-name="clock-o"
      unicode="&#xE075;"
      horiz-adv-x="1792" d=" M1024 1248V800Q1024 786 1015 777T992 768H672Q658 768 649 777T640 800V864Q640 878 649 887T672 896H896V1248Q896 1262 905 1271T928 1280H992Q1006 1280 1015 1271T1024 1248zM1440 896Q1440 1044 1367 1169T1169 1367T896 1440T623 1367T425 1169T352 896T425 623T623 425T896 352T1169 425T1367 623T1440 896zM1664 896Q1664 687 1561 510.5T1281.5 231T896 128T510.5 231T231 510.5T128 896T231 1281.5T510.5 1561T896 1664T1281.5 1561T1561 1281.5T1664 896z" />
    <glyph glyph-name="cloud-download"
      unicode="&#xE076;"
      horiz-adv-x="1792" d=" M1216 864Q1216 878 1207 887T1184 896H960V1248Q960 1261 950.5 1270.5T928 1280H736Q723 1280 713.5 1270.5T704 1248V896H480Q467 896 457.5 886.5T448 864Q448 850 457 841L809 489Q818 480 832 480T855 489L1206 840Q1216 852 1216 864zM1856 640Q1856 481 1743.5 368.5T1472 256H384Q199 256 67.5 387.5T-64 704Q-64 834 6 944T194 1109Q192 1139 192 1152Q192 1364 342 1514T704 1664Q860 1664 989.5 1577T1178 1346Q1249 1408 1344 1408Q1450 1408 1525 1333T1600 1152Q1600 1076 1559 1014Q1689 983 1772.5 878.5T1856 640z" />
    <glyph glyph-name="cloud-upload"
      unicode="&#xE077;"
      horiz-adv-x="1792" d=" M1216 928Q1216 942 1207 951L855 1303Q846 1312 832 1312T809 1303L458 952Q448 940 448 928Q448 914 457 905T480 896H704V544Q704 531 713.5 521.5T736 512H928Q941 512 950.5 521.5T960 544V896H1184Q1197 896 1206.5 905.5T1216 928zM1856 640Q1856 481 1743.5 368.5T1472 256H384Q199 256 67.5 387.5T-64 704Q-64 834 6 944T194 1109Q192 1139 192 1152Q192 1364 342 1514T704 1664Q860 1664 989.5 1577T1178 1346Q1249 1408 1344 1408Q1450 1408 1525 1333T1600 1152Q1600 1076 1559 1014Q1689 983 1772.5 878.5T1856 640z" />
    <glyph glyph-name="cloud"
      unicode="&#xE078;"
      horiz-adv-x="1792" d=" M1856 640Q1856 481 1743.5 368.5T1472 256H384Q199 256 67.5 387.5T-64 704Q-64 836 7 945.5T194 1109Q192 1137 192 1152Q192 1364 342 1514T704 1664Q862 1664 990.5 1576T1178 1346Q1248 1408 1344 1408Q1450 1408 1525 1333T1600 1152Q1600 1077 1559 1014Q1688 984 1772 879.5T1856 640z" />
    <glyph glyph-name="code-fork"
      unicode="&#xE079;"
      horiz-adv-x="1792" d=" M672 320Q672 360 644 388T576 416T508 388T480 320T508 252T576 224T644 252T672 320zM672 1472Q672 1512 644 1540T576 1568T508 1540T480 1472T508 1404T576 1376T644 1404T672 1472zM1312 1344Q1312 1384 1284 1412T1216 1440T1148 1412T1120 1344T1148 1276T1216 1248T1284 1276T1312 1344zM1408 1344Q1408 1292 1382 1247.5T1312 1178Q1310 891 1086 764Q1018 726 883 683Q755 643 713.5 612T672 512V486Q716 461 742 416.5T768 320Q768 240 712 184T576 128T440 184T384 320Q384 372 410 416.5T480 486V1306Q436 1331 410 1375.5T384 1472Q384 1552 440 1608T576 1664T712 1608T768 1472Q768 1420 742 1375.5T672 1306V809Q726 835 826 866Q881 883 913.5 895.5T984 926.5T1043 966T1083.5 1017T1111.5 1086.5T1120 1178Q1076 1203 1050 1247.5T1024 1344Q1024 1424 1080 1480T1216 1536T1352 1480T1408 1344z" />
    <glyph glyph-name="code"
      unicode="&#xE07A;"
      horiz-adv-x="1792" d=" M553 393L503 343Q493 333 480 333T457 343L-9 809Q-19 819 -19 832T-9 855L457 1321Q467 1331 480 1331T503 1321L553 1271Q563 1261 563 1248T553 1225L160 832L553 439Q563 429 563 416T553 393zM1144 1460L771 169Q767 156 755.5 149.5T732 147L670 164Q657 168 650.5 179.5T648 204L1021 1495Q1025 1508 1036.5 1514.5T1060 1517L1122 1500Q1135 1496 1141.5 1484.5T1144 1460zM1801 809L1335 343Q1325 333 1312 333T1289 343L1239 393Q1229 403 1229 416T1239 439L1632 832L1239 1225Q1229 1235 1229 1248T1239 1271L1289 1321Q1299 1331 1312 1331T1335 1321L1801 855Q1811 845 1811 832T1801 809z" />
    <glyph glyph-name="codepen"
      unicode="&#xE07B;"
      horiz-adv-x="1792" d=" M216 623L819 221V580L485 803zM154 767L347 896L154 1025V767zM973 221L1576 623L1307 803L973 580V221zM896 714L1168 896L896 1078L624 896zM485 989L819 1212V1571L216 1169zM1445 896L1638 767V1025zM1307 989L1576 1169L973 1571V1212zM1792 1169V623Q1792 582 1758 559L939 13Q918 0 896 0T853 13L34 559Q0 582 0 623V1169Q0 1210 34 1233L853 1779Q874 1792 896 1792T939 1779L1758 1233Q1792 1210 1792 1169z" />
    <glyph glyph-name="coffee"
      unicode="&#xE07C;"
      horiz-adv-x="1792" d=" M1600 1152Q1600 1232 1544 1288T1408 1344H1344V960H1408Q1488 960 1544 1016T1600 1152zM-64 384H1728Q1728 278 1653 203T1472 128H192Q86 128 11 203T-64 384zM1792 1152Q1792 993 1679.5 880.5T1408 768H1344V736Q1344 644 1278 578T1120 512H416Q324 512 258 578T192 736V1472Q192 1498 211 1517T256 1536H1408Q1567 1536 1679.5 1423.5T1792 1152z" />
    <glyph glyph-name="cog"
      unicode="&#xE07D;"
      horiz-adv-x="1792" d=" M1152 896Q1152 1002 1077 1077T896 1152T715 1077T640 896T715 715T896 640T1077 715T1152 896zM1664 1005V783Q1664 771 1656 760T1636 747L1451 719Q1432 665 1412 628Q1447 578 1519 490Q1529 478 1529 465T1520 442Q1493 405 1421 334T1327 263Q1315 263 1301 272L1163 380Q1119 357 1072 342Q1056 206 1043 156Q1036 128 1007 128H785Q771 128 760.5 136.5T749 158L721 342Q672 358 631 379L490 272Q480 263 465 263Q451 263 440 274Q314 388 275 442Q268 452 268 465Q268 477 276 488Q291 509 327 554.5T381 625Q354 675 340 724L157 751Q144 753 136 763.5T128 787V1009Q128 1021 136 1032T155 1045L341 1073Q355 1119 380 1165Q340 1222 273 1303Q263 1315 263 1327Q263 1337 272 1350Q298 1386 370.5 1457.5T465 1529Q478 1529 491 1519L629 1412Q673 1435 720 1450Q736 1586 749 1636Q756 1664 785 1664H1007Q1021 1664 1031.5 1655.5T1043 1634L1071 1450Q1120 1434 1161 1413L1303 1520Q1312 1529 1327 1529Q1340 1529 1352 1519Q1481 1400 1517 1349Q1524 1341 1524 1327Q1524 1315 1516 1304Q1501 1283 1465 1237.5T1411 1167Q1437 1117 1452 1069L1635 1041Q1648 1039 1656 1028.5T1664 1005z" />
    <glyph glyph-name="cogs"
      unicode="&#xE07E;"
      horiz-adv-x="1792" d=" M832 896Q832 1002 757 1077T576 1152T395 1077T320 896T395 715T576 640T757 715T832 896zM1600 384Q1600 436 1562 474T1472 512T1382 474T1344 384Q1344 331 1381.5 293.5T1472 256T1562.5 293.5T1600 384zM1600 1408Q1600 1460 1562 1498T1472 1536T1382 1498T1344 1408Q1344 1355 1381.5 1317.5T1472 1280T1562.5 1317.5T1600 1408zM1216 987V802Q1216 792 1209 782.5T1193 772L1038 748Q1027 713 1006 672Q1040 624 1096 557Q1103 547 1103 537Q1103 525 1096 518Q1073 488 1013.5 428.5T935 369Q924 369 914 376L799 466Q762 447 722 435Q711 327 699 280Q692 256 669 256H483Q472 256 463 263.5T453 281L430 434Q396 444 355 465L237 376Q230 369 217 369Q206 369 196 377Q52 510 52 537Q52 546 59 556Q69 570 100 609T147 670Q124 714 112 752L-40 776Q-50 777 -57 785.5T-64 805V990Q-64 1000 -57 1009.5T-41 1020L114 1044Q125 1079 146 1120Q112 1168 56 1235Q49 1246 49 1255Q49 1267 56 1275Q78 1305 138 1364T217 1423Q228 1423 238 1416L353 1326Q387 1344 430 1358Q441 1466 453 1512Q460 1536 483 1536H669Q680 1536 689 1528.5T699 1511L722 1358Q756 1348 797 1327L915 1416Q923 1423 935 1423Q946 1423 956 1415Q1100 1282 1100 1255Q1100 1246 1093 1236Q1081 1220 1051 1182T1006 1122Q1029 1074 1040 1040L1192 1017Q1202 1015 1209 1006.5T1216 987zM1856 454V314Q1856 298 1707 283Q1695 256 1677 231Q1728 118 1728 93Q1728 89 1724 86Q1602 15 1600 15Q1592 15 1554 62T1502 130Q1482 128 1472 128T1442 130Q1428 109 1390 62T1344 15Q1342 15 1220 86Q1216 89 1216 93Q1216 118 1267 231Q1249 256 1237 283Q1088 298 1088 314V454Q1088 470 1237 485Q1250 514 1267 537Q1216 650 1216 675Q1216 679 1220 682Q1224 684 1255 702T1314 736T1344 752Q1352 752 1390 705.5T1442 638Q1462 640 1472 640T1502 638Q1553 709 1594 750L1600 752Q1604 752 1724 682Q1728 679 1728 675Q1728 650 1677 537Q1694 514 1707 485Q1856 470 1856 454zM1856 1478V1338Q1856 1322 1707 1307Q1695 1280 1677 1255Q1728 1142 1728 1117Q1728 1113 1724 1110Q1602 1039 1600 1039Q1592 1039 1554 1086T1502 1154Q1482 1152 1472 1152T1442 1154Q1428 1133 1390 1086T1344 1039Q1342 1039 1220 1110Q1216 1113 1216 1117Q1216 1142 1267 1255Q1249 1280 1237 1307Q1088 1322 1088 1338V1478Q1088 1494 1237 1509Q1250 1538 1267 1561Q1216 1674 1216 1699Q1216 1703 1220 1706Q1224 1708 1255 1726T1314 1760T1344 1776Q1352 1776 1390 1729.5T1442 1662Q1462 1664 1472 1664T1502 1662Q1553 1733 1594 1774L1600 1776Q1604 1776 1724 1706Q1728 1703 1728 1699Q1728 1674 1677 1561Q1694 1538 1707 1509Q1856 1494 1856 1478z" />
    <glyph glyph-name="columns"
      unicode="&#xE07F;"
      horiz-adv-x="1792" d=" M224 256H832V1408H192V288Q192 275 201.5 265.5T224 256zM1600 288V1408H960V256H1568Q1581 256 1590.5 265.5T1600 288zM1728 1504V288Q1728 222 1681 175T1568 128H224Q158 128 111 175T64 288V1504Q64 1570 111 1617T224 1664H1568Q1634 1664 1681 1617T1728 1504z" />
    <glyph glyph-name="comment-o"
      unicode="&#xE080;"
      horiz-adv-x="1792" d=" M896 1408Q692 1408 514.5 1338.5T232.5 1151T128 896Q128 784 199.5 682.5T401 507L488 457L461 361Q437 270 391 189Q543 252 666 360L709 398L766 392Q835 384 896 384Q1100 384 1277.5 453.5T1559.5 641T1664 896T1559.5 1151T1277.5 1338.5T896 1408zM1792 896Q1792 722 1672 574.5T1346 341.5T896 256Q826 256 751 264Q553 89 291 22Q242 8 177 0H172Q157 0 145 10.5T129 38V39Q126 43 128.5 51T130.5 61T135 70.5L141 79.5L148 88L156 97Q163 105 187 131.5T221.5 169.5T252.5 209T285 260T312 319T338 395Q181 484 90.5 615T0 896Q0 1070 120 1217.5T446 1450.5T896 1536T1346 1450.5T1672 1217.5T1792 896z" />
    <glyph glyph-name="comment"
      unicode="&#xE081;"
      horiz-adv-x="1792" d=" M1792 896Q1792 722 1672 574.5T1346 341.5T896 256Q826 256 751 264Q553 89 291 22Q242 8 177 0Q160 -2 146.5 9T129 38V39Q126 43 128.5 51T130.5 61T135 70.5L141 79.5L148 88L156 97Q163 105 187 131.5T221.5 169.5T252.5 209T285 260T312 319T338 395Q181 484 90.5 615T0 896Q0 1026 71 1144.5T262 1349T548 1485.5T896 1536Q1140 1536 1346 1450.5T1672 1217.5T1792 896z" />
    <glyph glyph-name="comments-o"
      unicode="&#xE082;"
      horiz-adv-x="1792" d=" M704 1408Q551 1408 418 1356T206.5 1215T128 1024Q128 942 181 866T330 734L427 678L392 594Q426 614 454 633L498 664L551 654Q629 640 704 640Q857 640 990 692T1201.5 833T1280 1024T1201.5 1215T990 1356T704 1408zM704 1536Q895 1536 1057.5 1467.5T1314 1281T1408 1024T1314 767T1057.5 580.5T704 512Q618 512 528 528Q404 440 250 400Q214 391 164 384H161Q150 384 140.5 392T129 413Q128 416 128 419.5T128.5 426T130.5 432L133 437L136.5 442.5L140.5 447.5L145 452.5L149 457Q154 463 172 482T198 511.5T220.5 540.5T245.5 579T266 623Q142 695 71 800T0 1024Q0 1163 94 1281T350.5 1467.5T704 1536zM1526 367Q1536 343 1546.5 323T1571.5 284.5T1594 255.5T1620 226T1643 201Q1644 200 1647 196.5T1651.5 191.5T1655.5 186.5T1659 181L1661.5 176L1663.5 170L1664 163.5L1663 157Q1660 143 1650 135T1628 128Q1578 135 1542 144Q1388 184 1264 272Q1174 256 1088 256Q817 256 616 388Q674 384 704 384Q865 384 1013 429T1277 558Q1402 650 1469 770T1536 1024Q1536 1101 1513 1176Q1642 1105 1717 998T1792 768Q1792 648 1721 543.5T1526 367z" />
    <glyph glyph-name="comments"
      unicode="&#xE083;"
      horiz-adv-x="1792" d=" M1408 1024Q1408 885 1314 767T1057.5 580.5T704 512Q618 512 528 528Q404 440 250 400Q214 391 164 384H161Q150 384 140.5 392T129 413Q128 416 128 419.5T128.5 426T130.5 432L133 437L136.5 442.5L140.5 447.5L145 452.5L149 457Q154 463 172 482T198 511.5T220.5 540.5T245.5 579T266 623Q142 695 71 800T0 1024Q0 1163 94 1281T350.5 1467.5T704 1536T1057.5 1467.5T1314 1281T1408 1024zM1792 768Q1792 648 1721 543.5T1526 367Q1536 343 1546.5 323T1571.5 284.5T1594 255.5T1620 226T1643 201Q1644 200 1647 196.5T1651.5 191.5T1655.5 186.5T1659 181L1661.5 176L1663.5 170L1664 163.5L1663 157Q1660 143 1650 135T1628 128Q1578 135 1542 144Q1388 184 1264 272Q1174 256 1088 256Q817 256 616 388Q674 384 704 384Q865 384 1013 429T1277 558Q1402 650 1469 770T1536 1024Q1536 1101 1513 1176Q1642 1105 1717 998T1792 768z" />
    <glyph glyph-name="compass"
      unicode="&#xE084;"
      horiz-adv-x="1792" d=" M768 704L1024 832L768 960V704zM1152 1295V753L640 497V1039zM1440 896Q1440 1044 1367 1169T1169 1367T896 1440T623 1367T425 1169T352 896T425 623T623 425T896 352T1169 425T1367 623T1440 896zM1664 896Q1664 687 1561 510.5T1281.5 231T896 128T510.5 231T231 510.5T128 896T231 1281.5T510.5 1561T896 1664T1281.5 1561T1561 1281.5T1664 896z" />
    <glyph glyph-name="compress"
      unicode="&#xE085;"
      horiz-adv-x="1792" d=" M896 832V384Q896 358 877 339T832 320T787 339L643 483L311 151Q301 141 288 141T265 151L151 265Q141 275 141 288T151 311L483 643L339 787Q320 806 320 832T339 877T384 896H832Q858 896 877 877T896 832zM1651 1504Q1651 1491 1641 1481L1309 1149L1453 1005Q1472 986 1472 960T1453 915T1408 896H960Q934 896 915 915T896 960V1408Q896 1434 915 1453T960 1472T1005 1453L1149 1309L1481 1641Q1491 1651 1504 1651T1527 1641L1641 1527Q1651 1517 1651 1504z" />
    <glyph glyph-name="connectdevelop"
      unicode="&#xE086;"
      horiz-adv-x="1792" d=" M1920 897Q1920 876 1907 860.5T1874 841L1669 485Q1672 476 1672 467Q1672 447 1659.5 431.5T1627 412L1434 75Q1437 67 1437 59Q1437 36 1420.5 19T1380 2Q1355 2 1339 20H939Q922 0 896 0T853 20H454Q437 0 411 0Q388 0 371 16.5T354 57Q354 65 358 77L165 412Q145 416 132.5 431.5T120 467Q120 476 123 485L-83 841Q-103 846 -115.5 861.5T-128 897Q-128 918 -114.5 933.5T-81 953L118 1297Q118 1298 117.5 1300T117 1303Q117 1339 151 1354L360 1717Q356 1727 356 1735Q356 1759 373 1775.5T413 1792Q439 1792 457 1771H853Q869 1792 896 1792T939 1771H1337Q1355 1792 1381 1792Q1404 1792 1421 1775.5T1438 1735Q1438 1729 1434 1717L1641 1359Q1664 1358 1680 1341.5T1696 1303Q1696 1290 1689 1276L1876 952Q1895 948 1907.5 932.5T1920 897zM935 98H1324L982 452H839L497 98H857Q875 114 896 114T935 98zM-16 910Q-15 906 -15 897Q-15 887 -17 882L191 522Q193 522 195.5 521T201 518.5L206 516L394 715V1062L207 1256Q194 1248 178 1246zM858 1694H470L660 1494L1214 1694H934Q918 1678 896 1678T858 1694zM1561 482Q1562 488 1566 493L1502 561L1485 482H1561zM1455 482L1477 587L1225 853L929 546L992 482H1455zM1367 114L1383 142L1448 452H1021L1354 109Q1362 113 1367 114zM450 98H455L797 452H424V117L428 111Q442 106 450 98zM424 482H826L890 548L581 869L424 703V482zM231 482H394V671L226 494Q230 486 231 482zM230 1307Q230 1306 230.5 1305T231 1303Q231 1287 223 1274L394 1097V1366zM424 1377V1066L577 909L874 1223L651 1459zM428 1681L424 1673V1409L629 1483L438 1684Q432 1682 428 1681zM1319 1694H1303L682 1470L895 1245zM895 1202L598 887L909 568L1205 875zM560 890L424 1031V747zM910 526L868 482H953zM1246 874L1484 623L1616 1247L1613 1252L1612 1253zM1590 1274Q1582 1287 1582 1303V1305L1366 1681Q1361 1682 1353 1686L916 1223L1226 896zM394 1398V1621L231 1339zM394 452H231L394 169V452zM1479 452L1431 225L1561 452H1479zM1601 522L1808 883Q1806 893 1806 897Q1806 898 1809 913L1638 1209L1509 597L1586 515Q1591 518 1601 522z" />
    <glyph glyph-name="copyright"
      unicode="&#xE087;"
      horiz-adv-x="1792" d=" M1278 718V609Q1278 559 1241.5 520T1147.5 459.5T1029.5 427T912 416Q707 416 569.5 555T432 901Q432 1104 568 1240T907 1376Q941 1376 982.5 1371.5T1075.5 1353.5T1168 1319.5T1237 1263T1265 1182V1073Q1265 1057 1249 1057H1131Q1115 1057 1115 1073V1143Q1115 1186 1049.5 1210.5T912 1235Q772 1235 683.5 1143.5T595 906Q595 755 686.5 656.5T920 558Q988 558 1058 582T1128 648V718Q1128 725 1132.5 729.5T1143 734H1262Q1268 734 1273 729.5T1278 718zM896 1536Q766 1536 647.5 1485T443.5 1348.5T307 1144.5T256 896T307 647.5T443.5 443.5T647.5 307T896 256T1144.5 307T1348.5 443.5T1485 647.5T1536 896T1485 1144.5T1348.5 1348.5T1144.5 1485T896 1536zM1664 896Q1664 687 1561 510.5T1281.5 231T896 128T510.5 231T231 510.5T128 896T231 1281.5T510.5 1561T896 1664T1281.5 1561T1561 1281.5T1664 896z" />
    <glyph glyph-name="credit-card"
      unicode="&#xE088;"
      horiz-adv-x="1792" d=" M1696 1664Q1762 1664 1809 1617T1856 1504V288Q1856 222 1809 175T1696 128H96Q30 128 -17 175T-64 288V1504Q-64 1570 -17 1617T96 1664H1696zM96 1536Q83 1536 73.5 1526.5T64 1504V1280H1728V1504Q1728 1517 1718.5 1526.5T1696 1536H96zM1696 256Q1709 256 1718.5 265.5T1728 288V896H64V288Q64 275 73.5 265.5T96 256H1696zM192 384V512H448V384H192zM576 384V512H960V384H576z" />
    <glyph glyph-name="crop"
      unicode="&#xE089;"
      horiz-adv-x="1792" d=" M621 512H1216V1107zM576 557L1171 1152H576V557zM1728 480V288Q1728 274 1719 265T1696 256H1472V32Q1472 18 1463 9T1440 0H1248Q1234 0 1225 9T1216 32V256H352Q338 256 329 265T320 288V1152H96Q82 1152 73 1161T64 1184V1376Q64 1390 73 1399T96 1408H320V1632Q320 1646 329 1655T352 1664H544Q558 1664 567 1655T576 1632V1408H1427L1673 1655Q1683 1664 1696 1664T1719 1655Q1728 1645 1728 1632T1719 1609L1472 1363V512H1696Q1710 512 1719 503T1728 480z" />
    <glyph glyph-name="crosshairs"
      unicode="&#xE08A;"
      horiz-adv-x="1792" d=" M1325 768H1216Q1190 768 1171 787T1152 832V960Q1152 986 1171 1005T1216 1024H1325Q1293 1132 1212.5 1212.5T1024 1325V1216Q1024 1190 1005 1171T960 1152H832Q806 1152 787 1171T768 1216V1325Q660 1293 579.5 1212.5T467 1024H576Q602 1024 621 1005T640 960V832Q640 806 621 787T576 768H467Q499 660 579.5 579.5T768 467V576Q768 602 787 621T832 640H960Q986 640 1005 621T1024 576V467Q1132 499 1212.5 579.5T1325 768zM1664 960V832Q1664 806 1645 787T1600 768H1457Q1420 607 1302.5 489.5T1024 335V192Q1024 166 1005 147T960 128H832Q806 128 787 147T768 192V335Q607 372 489.5 489.5T335 768H192Q166 768 147 787T128 832V960Q128 986 147 1005T192 1024H335Q372 1185 489.5 1302.5T768 1457V1600Q768 1626 787 1645T832 1664H960Q986 1664 1005 1645T1024 1600V1457Q1185 1420 1302.5 1302.5T1457 1024H1600Q1626 1024 1645 1005T1664 960z" />
    <glyph glyph-name="css3"
      unicode="&#xE08B;"
      horiz-adv-x="1792" d=" M275 1664H1780L1514 331L710 64L12 331L83 687H380L351 540L773 379L1259 540L1327 879H119L177 1176H1386L1424 1367H216z" />
    <glyph glyph-name="cube"
      unicode="&#xE08C;"
      horiz-adv-x="1792" d=" M896 163L1536 512V1148L896 915V163zM832 1028L1530 1282L832 1536L134 1282zM1664 1280V512Q1664 477 1646 447T1597 400L893 16Q865 0 832 0T771 16L67 400Q36 417 18 447T0 512V1280Q0 1320 23 1353T84 1400L788 1656Q810 1664 832 1664T876 1656L1580 1400Q1618 1386 1641 1353T1664 1280z" />
    </font>
</defs>
</svg>
